  0
SECTION
  2
BLOCKS
  0
ENDSEC
  0
SECTION
  2
ENTITIES
  0
LINE
  8
0
 10
-80
 20
-40
 11
80
 21
-40
  0
LINE
  8
0
 10
80
 20
-40
 11
80
 21
7
  0
LINE
  8
0
 10
80
 20
7
 11
111
 21
27.85
  0
LINE
  8
0
 10
111
 20
27.85
 11
111
 21
249.85
  0
LINE
  8
0
 10
111
 20
249.85
 11
-111
 21
249.85
  0
LINE
  8
0
 10
-111
 20
249.85
 11
-111
 21
27.85
  0
LINE
  8
0
 10
-111
 20
27.85
 11
-80
 21
7
  0
LINE
  8
0
 10
-80
 20
7
 11
-80
 21
-40
  0
LINE
  8
0
 10
104.396
 20
241.703
 11
104.191
 21
241.729
  0
LINE
  8
0
 10
104.191
 20
241.729
 11
103.99
 21
241.781
  0
LINE
  8
0
 10
103.99
 20
241.781
 11
103.797
 21
241.857
  0
LINE
  8
0
 10
103.797
 20
241.857
 11
103.616
 21
241.957
  0
LINE
  8
0
 10
103.616
 20
241.957
 11
103.448
 21
242.079
  0
LINE
  8
0
 10
103.448
 20
242.079
 11
103.297
 21
242.22
  0
LINE
  8
0
 10
103.297
 20
242.22
 11
103.165
 21
242.38
  0
LINE
  8
0
 10
103.165
 20
242.38
 11
103.054
 21
242.555
  0
LINE
  8
0
 10
103.054
 20
242.555
 11
102.966
 21
242.743
  0
LINE
  8
0
 10
102.966
 20
242.743
 11
102.902
 21
242.94
  0
LINE
  8
0
 10
102.902
 20
242.94
 11
102.863
 21
243.143
  0
LINE
  8
0
 10
102.863
 20
243.143
 11
102.85
 21
243.35
  0
LINE
  8
0
 10
102.85
 20
243.35
 11
102.863
 21
243.557
  0
LINE
  8
0
 10
102.863
 20
243.557
 11
102.902
 21
243.76
  0
LINE
  8
0
 10
102.902
 20
243.76
 11
102.966
 21
243.957
  0
LINE
  8
0
 10
102.966
 20
243.957
 11
103.054
 21
244.145
  0
LINE
  8
0
 10
103.054
 20
244.145
 11
103.165
 21
244.32
  0
LINE
  8
0
 10
103.165
 20
244.32
 11
103.297
 21
244.479
  0
LINE
  8
0
 10
103.297
 20
244.479
 11
103.448
 21
244.621
  0
LINE
  8
0
 10
103.448
 20
244.621
 11
103.616
 21
244.743
  0
LINE
  8
0
 10
103.616
 20
244.743
 11
103.797
 21
244.843
  0
LINE
  8
0
 10
103.797
 20
244.843
 11
103.99
 21
244.919
  0
LINE
  8
0
 10
103.99
 20
244.919
 11
104.191
 21
244.971
  0
LINE
  8
0
 10
104.191
 20
244.971
 11
104.396
 21
244.997
  0
LINE
  8
0
 10
104.396
 20
244.997
 11
104.604
 21
244.997
  0
LINE
  8
0
 10
104.604
 20
244.997
 11
104.809
 21
244.971
  0
LINE
  8
0
 10
104.809
 20
244.971
 11
105.01
 21
244.919
  0
LINE
  8
0
 10
105.01
 20
244.919
 11
105.203
 21
244.843
  0
LINE
  8
0
 10
105.203
 20
244.843
 11
105.384
 21
244.743
  0
LINE
  8
0
 10
105.384
 20
244.743
 11
105.552
 21
244.621
  0
LINE
  8
0
 10
105.552
 20
244.621
 11
105.703
 21
244.479
  0
LINE
  8
0
 10
105.703
 20
244.479
 11
105.835
 21
244.32
  0
LINE
  8
0
 10
105.835
 20
244.32
 11
105.946
 21
244.145
  0
LINE
  8
0
 10
105.946
 20
244.145
 11
106.034
 21
243.957
  0
LINE
  8
0
 10
106.034
 20
243.957
 11
106.098
 21
243.76
  0
LINE
  8
0
 10
106.098
 20
243.76
 11
106.137
 21
243.557
  0
LINE
  8
0
 10
106.137
 20
243.557
 11
106.15
 21
243.35
  0
LINE
  8
0
 10
106.15
 20
243.35
 11
106.137
 21
243.143
  0
LINE
  8
0
 10
106.137
 20
243.143
 11
106.098
 21
242.94
  0
LINE
  8
0
 10
106.098
 20
242.94
 11
106.034
 21
242.743
  0
LINE
  8
0
 10
106.034
 20
242.743
 11
105.946
 21
242.555
  0
LINE
  8
0
 10
105.946
 20
242.555
 11
105.835
 21
242.38
  0
LINE
  8
0
 10
105.835
 20
242.38
 11
105.703
 21
242.22
  0
LINE
  8
0
 10
105.703
 20
242.22
 11
105.552
 21
242.079
  0
LINE
  8
0
 10
105.552
 20
242.079
 11
105.384
 21
241.957
  0
LINE
  8
0
 10
105.384
 20
241.957
 11
105.203
 21
241.857
  0
LINE
  8
0
 10
105.203
 20
241.857
 11
105.01
 21
241.781
  0
LINE
  8
0
 10
105.01
 20
241.781
 11
104.809
 21
241.729
  0
LINE
  8
0
 10
104.809
 20
241.729
 11
104.604
 21
241.703
  0
LINE
  8
0
 10
104.604
 20
241.703
 11
104.396
 21
241.703
  0
LINE
  8
0
 10
-104.604
 20
241.703
 11
-104.809
 21
241.729
  0
LINE
  8
0
 10
-104.809
 20
241.729
 11
-105.01
 21
241.781
  0
LINE
  8
0
 10
-105.01
 20
241.781
 11
-105.203
 21
241.857
  0
LINE
  8
0
 10
-105.203
 20
241.857
 11
-105.384
 21
241.957
  0
LINE
  8
0
 10
-105.384
 20
241.957
 11
-105.552
 21
242.079
  0
LINE
  8
0
 10
-105.552
 20
242.079
 11
-105.703
 21
242.22
  0
LINE
  8
0
 10
-105.703
 20
242.22
 11
-105.835
 21
242.38
  0
LINE
  8
0
 10
-105.835
 20
242.38
 11
-105.946
 21
242.555
  0
LINE
  8
0
 10
-105.946
 20
242.555
 11
-106.034
 21
242.743
  0
LINE
  8
0
 10
-106.034
 20
242.743
 11
-106.098
 21
242.94
  0
LINE
  8
0
 10
-106.098
 20
242.94
 11
-106.137
 21
243.143
  0
LINE
  8
0
 10
-106.137
 20
243.143
 11
-106.15
 21
243.35
  0
LINE
  8
0
 10
-106.15
 20
243.35
 11
-106.137
 21
243.557
  0
LINE
  8
0
 10
-106.137
 20
243.557
 11
-106.098
 21
243.76
  0
LINE
  8
0
 10
-106.098
 20
243.76
 11
-106.034
 21
243.957
  0
LINE
  8
0
 10
-106.034
 20
243.957
 11
-105.946
 21
244.145
  0
LINE
  8
0
 10
-105.946
 20
244.145
 11
-105.835
 21
244.32
  0
LINE
  8
0
 10
-105.835
 20
244.32
 11
-105.703
 21
244.479
  0
LINE
  8
0
 10
-105.703
 20
244.479
 11
-105.552
 21
244.621
  0
LINE
  8
0
 10
-105.552
 20
244.621
 11
-105.384
 21
244.743
  0
LINE
  8
0
 10
-105.384
 20
244.743
 11
-105.203
 21
244.843
  0
LINE
  8
0
 10
-105.203
 20
244.843
 11
-105.01
 21
244.919
  0
LINE
  8
0
 10
-105.01
 20
244.919
 11
-104.809
 21
244.971
  0
LINE
  8
0
 10
-104.809
 20
244.971
 11
-104.604
 21
244.997
  0
LINE
  8
0
 10
-104.604
 20
244.997
 11
-104.396
 21
244.997
  0
LINE
  8
0
 10
-104.396
 20
244.997
 11
-104.191
 21
244.971
  0
LINE
  8
0
 10
-104.191
 20
244.971
 11
-103.99
 21
244.919
  0
LINE
  8
0
 10
-103.99
 20
244.919
 11
-103.797
 21
244.843
  0
LINE
  8
0
 10
-103.797
 20
244.843
 11
-103.616
 21
244.743
  0
LINE
  8
0
 10
-103.616
 20
244.743
 11
-103.448
 21
244.621
  0
LINE
  8
0
 10
-103.448
 20
244.621
 11
-103.297
 21
244.479
  0
LINE
  8
0
 10
-103.297
 20
244.479
 11
-103.165
 21
244.32
  0
LINE
  8
0
 10
-103.165
 20
244.32
 11
-103.054
 21
244.145
  0
LINE
  8
0
 10
-103.054
 20
244.145
 11
-102.966
 21
243.957
  0
LINE
  8
0
 10
-102.966
 20
243.957
 11
-102.902
 21
243.76
  0
LINE
  8
0
 10
-102.902
 20
243.76
 11
-102.863
 21
243.557
  0
LINE
  8
0
 10
-102.863
 20
243.557
 11
-102.85
 21
243.35
  0
LINE
  8
0
 10
-102.85
 20
243.35
 11
-102.863
 21
243.143
  0
LINE
  8
0
 10
-102.863
 20
243.143
 11
-102.902
 21
242.94
  0
LINE
  8
0
 10
-102.902
 20
242.94
 11
-102.966
 21
242.743
  0
LINE
  8
0
 10
-102.966
 20
242.743
 11
-103.054
 21
242.555
  0
LINE
  8
0
 10
-103.054
 20
242.555
 11
-103.165
 21
242.38
  0
LINE
  8
0
 10
-103.165
 20
242.38
 11
-103.297
 21
242.22
  0
LINE
  8
0
 10
-103.297
 20
242.22
 11
-103.448
 21
242.079
  0
LINE
  8
0
 10
-103.448
 20
242.079
 11
-103.616
 21
241.957
  0
LINE
  8
0
 10
-103.616
 20
241.957
 11
-103.797
 21
241.857
  0
LINE
  8
0
 10
-103.797
 20
241.857
 11
-103.99
 21
241.781
  0
LINE
  8
0
 10
-103.99
 20
241.781
 11
-104.191
 21
241.729
  0
LINE
  8
0
 10
-104.191
 20
241.729
 11
-104.396
 21
241.703
  0
LINE
  8
0
 10
-104.396
 20
241.703
 11
-104.604
 21
241.703
  0
LINE
  8
0
 10
-0.103592
 20
32.7032
 11
-0.309174
 21
32.7292
  0
LINE
  8
0
 10
-0.309174
 20
32.7292
 11
-0.509872
 21
32.7807
  0
LINE
  8
0
 10
-0.509872
 20
32.7807
 11
-0.70253
 21
32.857
  0
LINE
  8
0
 10
-0.70253
 20
32.857
 11
-0.884109
 21
32.9568
  0
LINE
  8
0
 10
-0.884109
 20
32.9568
 11
-1.05174
 21
33.0786
  0
LINE
  8
0
 10
-1.05174
 20
33.0786
 11
-1.20279
 21
33.2205
  0
LINE
  8
0
 10
-1.20279
 20
33.2205
 11
-1.33487
 21
33.3801
  0
LINE
  8
0
 10
-1.33487
 20
33.3801
 11
-1.44589
 21
33.5551
  0
LINE
  8
0
 10
-1.44589
 20
33.5551
 11
-1.53412
 21
33.7426
  0
LINE
  8
0
 10
-1.53412
 20
33.7426
 11
-1.59816
 21
33.9397
  0
LINE
  8
0
 10
-1.59816
 20
33.9397
 11
-1.63698
 21
34.1432
  0
LINE
  8
0
 10
-1.63698
 20
34.1432
 11
-1.64999
 21
34.35
  0
LINE
  8
0
 10
-1.64999
 20
34.35
 11
-1.63698
 21
34.5568
  0
LINE
  8
0
 10
-1.63698
 20
34.5568
 11
-1.59816
 21
34.7603
  0
LINE
  8
0
 10
-1.59816
 20
34.7603
 11
-1.53412
 21
34.9574
  0
LINE
  8
0
 10
-1.53412
 20
34.9574
 11
-1.44589
 21
35.1449
  0
LINE
  8
0
 10
-1.44589
 20
35.1449
 11
-1.33487
 21
35.3198
  0
LINE
  8
0
 10
-1.33487
 20
35.3198
 11
-1.20279
 21
35.4795
  0
LINE
  8
0
 10
-1.20279
 20
35.4795
 11
-1.05174
 21
35.6213
  0
LINE
  8
0
 10
-1.05174
 20
35.6213
 11
-0.884109
 21
35.7431
  0
LINE
  8
0
 10
-0.884109
 20
35.7431
 11
-0.70253
 21
35.843
  0
LINE
  8
0
 10
-0.70253
 20
35.843
 11
-0.509872
 21
35.9192
  0
LINE
  8
0
 10
-0.509872
 20
35.9192
 11
-0.309174
 21
35.9708
  0
LINE
  8
0
 10
-0.309174
 20
35.9708
 11
-0.103592
 21
35.9967
  0
LINE
  8
0
 10
-0.103592
 20
35.9967
 11
0.103592
 21
35.9967
  0
LINE
  8
0
 10
0.103592
 20
35.9967
 11
0.309174
 21
35.9708
  0
LINE
  8
0
 10
0.309174
 20
35.9708
 11
0.509872
 21
35.9192
  0
LINE
  8
0
 10
0.509872
 20
35.9192
 11
0.70253
 21
35.843
  0
LINE
  8
0
 10
0.70253
 20
35.843
 11
0.884109
 21
35.7431
  0
LINE
  8
0
 10
0.884109
 20
35.7431
 11
1.05174
 21
35.6213
  0
LINE
  8
0
 10
1.05174
 20
35.6213
 11
1.20279
 21
35.4795
  0
LINE
  8
0
 10
1.20279
 20
35.4795
 11
1.33487
 21
35.3198
  0
LINE
  8
0
 10
1.33487
 20
35.3198
 11
1.44589
 21
35.1449
  0
LINE
  8
0
 10
1.44589
 20
35.1449
 11
1.53412
 21
34.9574
  0
LINE
  8
0
 10
1.53412
 20
34.9574
 11
1.59816
 21
34.7603
  0
LINE
  8
0
 10
1.59816
 20
34.7603
 11
1.63698
 21
34.5568
  0
LINE
  8
0
 10
1.63698
 20
34.5568
 11
1.64999
 21
34.35
  0
LINE
  8
0
 10
1.64999
 20
34.35
 11
1.63698
 21
34.1432
  0
LINE
  8
0
 10
1.63698
 20
34.1432
 11
1.59816
 21
33.9397
  0
LINE
  8
0
 10
1.59816
 20
33.9397
 11
1.53412
 21
33.7426
  0
LINE
  8
0
 10
1.53412
 20
33.7426
 11
1.44589
 21
33.5551
  0
LINE
  8
0
 10
1.44589
 20
33.5551
 11
1.33487
 21
33.3801
  0
LINE
  8
0
 10
1.33487
 20
33.3801
 11
1.20279
 21
33.2205
  0
LINE
  8
0
 10
1.20279
 20
33.2205
 11
1.05174
 21
33.0786
  0
LINE
  8
0
 10
1.05174
 20
33.0786
 11
0.884109
 21
32.9568
  0
LINE
  8
0
 10
0.884109
 20
32.9568
 11
0.70253
 21
32.857
  0
LINE
  8
0
 10
0.70253
 20
32.857
 11
0.509872
 21
32.7807
  0
LINE
  8
0
 10
0.509872
 20
32.7807
 11
0.309174
 21
32.7292
  0
LINE
  8
0
 10
0.309174
 20
32.7292
 11
0.103592
 21
32.7032
  0
LINE
  8
0
 10
0.103592
 20
32.7032
 11
-0.103592
 21
32.7032
  0
LINE
  8
0
 10
104.396
 20
32.7032
 11
104.191
 21
32.7292
  0
LINE
  8
0
 10
104.191
 20
32.7292
 11
103.99
 21
32.7807
  0
LINE
  8
0
 10
103.99
 20
32.7807
 11
103.797
 21
32.857
  0
LINE
  8
0
 10
103.797
 20
32.857
 11
103.616
 21
32.9568
  0
LINE
  8
0
 10
103.616
 20
32.9568
 11
103.448
 21
33.0786
  0
LINE
  8
0
 10
103.448
 20
33.0786
 11
103.297
 21
33.2205
  0
LINE
  8
0
 10
103.297
 20
33.2205
 11
103.165
 21
33.3801
  0
LINE
  8
0
 10
103.165
 20
33.3801
 11
103.054
 21
33.5551
  0
LINE
  8
0
 10
103.054
 20
33.5551
 11
102.966
 21
33.7426
  0
LINE
  8
0
 10
102.966
 20
33.7426
 11
102.902
 21
33.9397
  0
LINE
  8
0
 10
102.902
 20
33.9397
 11
102.863
 21
34.1432
  0
LINE
  8
0
 10
102.863
 20
34.1432
 11
102.85
 21
34.35
  0
LINE
  8
0
 10
102.85
 20
34.35
 11
102.863
 21
34.5568
  0
LINE
  8
0
 10
102.863
 20
34.5568
 11
102.902
 21
34.7603
  0
LINE
  8
0
 10
102.902
 20
34.7603
 11
102.966
 21
34.9574
  0
LINE
  8
0
 10
102.966
 20
34.9574
 11
103.054
 21
35.1449
  0
LINE
  8
0
 10
103.054
 20
35.1449
 11
103.165
 21
35.3198
  0
LINE
  8
0
 10
103.165
 20
35.3198
 11
103.297
 21
35.4795
  0
LINE
  8
0
 10
103.297
 20
35.4795
 11
103.448
 21
35.6213
  0
LINE
  8
0
 10
103.448
 20
35.6213
 11
103.616
 21
35.7431
  0
LINE
  8
0
 10
103.616
 20
35.7431
 11
103.797
 21
35.843
  0
LINE
  8
0
 10
103.797
 20
35.843
 11
103.99
 21
35.9192
  0
LINE
  8
0
 10
103.99
 20
35.9192
 11
104.191
 21
35.9708
  0
LINE
  8
0
 10
104.191
 20
35.9708
 11
104.396
 21
35.9967
  0
LINE
  8
0
 10
104.396
 20
35.9967
 11
104.604
 21
35.9967
  0
LINE
  8
0
 10
104.604
 20
35.9967
 11
104.809
 21
35.9708
  0
LINE
  8
0
 10
104.809
 20
35.9708
 11
105.01
 21
35.9192
  0
LINE
  8
0
 10
105.01
 20
35.9192
 11
105.203
 21
35.843
  0
LINE
  8
0
 10
105.203
 20
35.843
 11
105.384
 21
35.7431
  0
LINE
  8
0
 10
105.384
 20
35.7431
 11
105.552
 21
35.6213
  0
LINE
  8
0
 10
105.552
 20
35.6213
 11
105.703
 21
35.4795
  0
LINE
  8
0
 10
105.703
 20
35.4795
 11
105.835
 21
35.3198
  0
LINE
  8
0
 10
105.835
 20
35.3198
 11
105.946
 21
35.1449
  0
LINE
  8
0
 10
105.946
 20
35.1449
 11
106.034
 21
34.9574
  0
LINE
  8
0
 10
106.034
 20
34.9574
 11
106.098
 21
34.7603
  0
LINE
  8
0
 10
106.098
 20
34.7603
 11
106.137
 21
34.5568
  0
LINE
  8
0
 10
106.137
 20
34.5568
 11
106.15
 21
34.35
  0
LINE
  8
0
 10
106.15
 20
34.35
 11
106.137
 21
34.1432
  0
LINE
  8
0
 10
106.137
 20
34.1432
 11
106.098
 21
33.9397
  0
LINE
  8
0
 10
106.098
 20
33.9397
 11
106.034
 21
33.7426
  0
LINE
  8
0
 10
106.034
 20
33.7426
 11
105.946
 21
33.5551
  0
LINE
  8
0
 10
105.946
 20
33.5551
 11
105.835
 21
33.3801
  0
LINE
  8
0
 10
105.835
 20
33.3801
 11
105.703
 21
33.2205
  0
LINE
  8
0
 10
105.703
 20
33.2205
 11
105.552
 21
33.0786
  0
LINE
  8
0
 10
105.552
 20
33.0786
 11
105.384
 21
32.9568
  0
LINE
  8
0
 10
105.384
 20
32.9568
 11
105.203
 21
32.857
  0
LINE
  8
0
 10
105.203
 20
32.857
 11
105.01
 21
32.7807
  0
LINE
  8
0
 10
105.01
 20
32.7807
 11
104.809
 21
32.7292
  0
LINE
  8
0
 10
104.809
 20
32.7292
 11
104.604
 21
32.7032
  0
LINE
  8
0
 10
104.604
 20
32.7032
 11
104.396
 21
32.7032
  0
LINE
  8
0
 10
-104.604
 20
32.7032
 11
-104.809
 21
32.7292
  0
LINE
  8
0
 10
-104.809
 20
32.7292
 11
-105.01
 21
32.7807
  0
LINE
  8
0
 10
-105.01
 20
32.7807
 11
-105.203
 21
32.857
  0
LINE
  8
0
 10
-105.203
 20
32.857
 11
-105.384
 21
32.9568
  0
LINE
  8
0
 10
-105.384
 20
32.9568
 11
-105.552
 21
33.0786
  0
LINE
  8
0
 10
-105.552
 20
33.0786
 11
-105.703
 21
33.2205
  0
LINE
  8
0
 10
-105.703
 20
33.2205
 11
-105.835
 21
33.3801
  0
LINE
  8
0
 10
-105.835
 20
33.3801
 11
-105.946
 21
33.5551
  0
LINE
  8
0
 10
-105.946
 20
33.5551
 11
-106.034
 21
33.7426
  0
LINE
  8
0
 10
-106.034
 20
33.7426
 11
-106.098
 21
33.9397
  0
LINE
  8
0
 10
-106.098
 20
33.9397
 11
-106.137
 21
34.1432
  0
LINE
  8
0
 10
-106.137
 20
34.1432
 11
-106.15
 21
34.35
  0
LINE
  8
0
 10
-106.15
 20
34.35
 11
-106.137
 21
34.5568
  0
LINE
  8
0
 10
-106.137
 20
34.5568
 11
-106.098
 21
34.7603
  0
LINE
  8
0
 10
-106.098
 20
34.7603
 11
-106.034
 21
34.9574
  0
LINE
  8
0
 10
-106.034
 20
34.9574
 11
-105.946
 21
35.1449
  0
LINE
  8
0
 10
-105.946
 20
35.1449
 11
-105.835
 21
35.3198
  0
LINE
  8
0
 10
-105.835
 20
35.3198
 11
-105.703
 21
35.4795
  0
LINE
  8
0
 10
-105.703
 20
35.4795
 11
-105.552
 21
35.6213
  0
LINE
  8
0
 10
-105.552
 20
35.6213
 11
-105.384
 21
35.7431
  0
LINE
  8
0
 10
-105.384
 20
35.7431
 11
-105.203
 21
35.843
  0
LINE
  8
0
 10
-105.203
 20
35.843
 11
-105.01
 21
35.9192
  0
LINE
  8
0
 10
-105.01
 20
35.9192
 11
-104.809
 21
35.9708
  0
LINE
  8
0
 10
-104.809
 20
35.9708
 11
-104.604
 21
35.9967
  0
LINE
  8
0
 10
-104.604
 20
35.9967
 11
-104.396
 21
35.9967
  0
LINE
  8
0
 10
-104.396
 20
35.9967
 11
-104.191
 21
35.9708
  0
LINE
  8
0
 10
-104.191
 20
35.9708
 11
-103.99
 21
35.9192
  0
LINE
  8
0
 10
-103.99
 20
35.9192
 11
-103.797
 21
35.843
  0
LINE
  8
0
 10
-103.797
 20
35.843
 11
-103.616
 21
35.7431
  0
LINE
  8
0
 10
-103.616
 20
35.7431
 11
-103.448
 21
35.6213
  0
LINE
  8
0
 10
-103.448
 20
35.6213
 11
-103.297
 21
35.4795
  0
LINE
  8
0
 10
-103.297
 20
35.4795
 11
-103.165
 21
35.3198
  0
LINE
  8
0
 10
-103.165
 20
35.3198
 11
-103.054
 21
35.1449
  0
LINE
  8
0
 10
-103.054
 20
35.1449
 11
-102.966
 21
34.9574
  0
LINE
  8
0
 10
-102.966
 20
34.9574
 11
-102.902
 21
34.7603
  0
LINE
  8
0
 10
-102.902
 20
34.7603
 11
-102.863
 21
34.5568
  0
LINE
  8
0
 10
-102.863
 20
34.5568
 11
-102.85
 21
34.35
  0
LINE
  8
0
 10
-102.85
 20
34.35
 11
-102.863
 21
34.1432
  0
LINE
  8
0
 10
-102.863
 20
34.1432
 11
-102.902
 21
33.9397
  0
LINE
  8
0
 10
-102.902
 20
33.9397
 11
-102.966
 21
33.7426
  0
LINE
  8
0
 10
-102.966
 20
33.7426
 11
-103.054
 21
33.5551
  0
LINE
  8
0
 10
-103.054
 20
33.5551
 11
-103.165
 21
33.3801
  0
LINE
  8
0
 10
-103.165
 20
33.3801
 11
-103.297
 21
33.2205
  0
LINE
  8
0
 10
-103.297
 20
33.2205
 11
-103.448
 21
33.0786
  0
LINE
  8
0
 10
-103.448
 20
33.0786
 11
-103.616
 21
32.9568
  0
LINE
  8
0
 10
-103.616
 20
32.9568
 11
-103.797
 21
32.857
  0
LINE
  8
0
 10
-103.797
 20
32.857
 11
-103.99
 21
32.7807
  0
LINE
  8
0
 10
-103.99
 20
32.7807
 11
-104.191
 21
32.7292
  0
LINE
  8
0
 10
-104.191
 20
32.7292
 11
-104.396
 21
32.7032
  0
LINE
  8
0
 10
-104.396
 20
32.7032
 11
-104.604
 21
32.7032
  0
LINE
  8
0
 10
71.1724
 20
-10.9318
 11
70.8921
 21
-10.8964
  0
LINE
  8
0
 10
70.8921
 20
-10.8964
 11
70.6184
 21
-10.8262
  0
LINE
  8
0
 10
70.6184
 20
-10.8262
 11
70.3557
 21
-10.7221
  0
LINE
  8
0
 10
70.3557
 20
-10.7221
 11
70.1081
 21
-10.586
  0
LINE
  8
0
 10
70.1081
 20
-10.586
 11
69.8795
 21
-10.4199
  0
LINE
  8
0
 10
69.8795
 20
-10.4199
 11
69.6735
 21
-10.2265
  0
LINE
  8
0
 10
69.6735
 20
-10.2265
 11
69.4934
 21
-10.0088
  0
LINE
  8
0
 10
69.4934
 20
-10.0088
 11
69.342
 21
-9.77023
  0
LINE
  8
0
 10
69.342
 20
-9.77023
 11
69.2217
 21
-9.51456
  0
LINE
  8
0
 10
69.2217
 20
-9.51456
 11
69.1344
 21
-9.24583
  0
LINE
  8
0
 10
69.1344
 20
-9.24583
 11
69.0814
 21
-8.96828
  0
LINE
  8
0
 10
69.0814
 20
-8.96828
 11
69.0637
 21
-8.68628
  0
LINE
  8
0
 10
69.0637
 20
-8.68628
 11
69.0814
 21
-8.40428
  0
LINE
  8
0
 10
69.0814
 20
-8.40428
 11
69.1344
 21
-8.12672
  0
LINE
  8
0
 10
69.1344
 20
-8.12672
 11
69.2217
 21
-7.858
  0
LINE
  8
0
 10
69.2217
 20
-7.858
 11
69.342
 21
-7.60234
  0
LINE
  8
0
 10
69.342
 20
-7.60234
 11
69.4934
 21
-7.36377
  0
LINE
  8
0
 10
69.4934
 20
-7.36377
 11
69.6735
 21
-7.14606
  0
LINE
  8
0
 10
69.6735
 20
-7.14606
 11
69.8795
 21
-6.95262
  0
LINE
  8
0
 10
69.8795
 20
-6.95262
 11
70.1081
 21
-6.78654
  0
LINE
  8
0
 10
70.1081
 20
-6.78654
 11
70.3557
 21
-6.65042
  0
LINE
  8
0
 10
70.3557
 20
-6.65042
 11
70.6184
 21
-6.5464
  0
LINE
  8
0
 10
70.6184
 20
-6.5464
 11
70.8921
 21
-6.47614
  0
LINE
  8
0
 10
70.8921
 20
-6.47614
 11
71.1724
 21
-6.44072
  0
LINE
  8
0
 10
71.1724
 20
-6.44072
 11
71.455
 21
-6.44072
  0
LINE
  8
0
 10
71.455
 20
-6.44072
 11
71.7353
 21
-6.47614
  0
LINE
  8
0
 10
71.7353
 20
-6.47614
 11
72.009
 21
-6.5464
  0
LINE
  8
0
 10
72.009
 20
-6.5464
 11
72.2717
 21
-6.65042
  0
LINE
  8
0
 10
72.2717
 20
-6.65042
 11
72.5193
 21
-6.78654
  0
LINE
  8
0
 10
72.5193
 20
-6.78654
 11
72.7479
 21
-6.95262
  0
LINE
  8
0
 10
72.7479
 20
-6.95262
 11
72.9539
 21
-7.14606
  0
LINE
  8
0
 10
72.9539
 20
-7.14606
 11
73.134
 21
-7.36377
  0
LINE
  8
0
 10
73.134
 20
-7.36377
 11
73.2854
 21
-7.60234
  0
LINE
  8
0
 10
73.2854
 20
-7.60234
 11
73.4057
 21
-7.858
  0
LINE
  8
0
 10
73.4057
 20
-7.858
 11
73.493
 21
-8.12672
  0
LINE
  8
0
 10
73.493
 20
-8.12672
 11
73.546
 21
-8.40428
  0
LINE
  8
0
 10
73.546
 20
-8.40428
 11
73.5637
 21
-8.68628
  0
LINE
  8
0
 10
73.5637
 20
-8.68628
 11
73.546
 21
-8.96828
  0
LINE
  8
0
 10
73.546
 20
-8.96828
 11
73.493
 21
-9.24583
  0
LINE
  8
0
 10
73.493
 20
-9.24583
 11
73.4057
 21
-9.51456
  0
LINE
  8
0
 10
73.4057
 20
-9.51456
 11
73.2854
 21
-9.77023
  0
LINE
  8
0
 10
73.2854
 20
-9.77023
 11
73.134
 21
-10.0088
  0
LINE
  8
0
 10
73.134
 20
-10.0088
 11
72.9539
 21
-10.2265
  0
LINE
  8
0
 10
72.9539
 20
-10.2265
 11
72.7479
 21
-10.4199
  0
LINE
  8
0
 10
72.7479
 20
-10.4199
 11
72.5193
 21
-10.586
  0
LINE
  8
0
 10
72.5193
 20
-10.586
 11
72.2717
 21
-10.7221
  0
LINE
  8
0
 10
72.2717
 20
-10.7221
 11
72.009
 21
-10.8262
  0
LINE
  8
0
 10
72.009
 20
-10.8262
 11
71.7353
 21
-10.8964
  0
LINE
  8
0
 10
71.7353
 20
-10.8964
 11
71.455
 21
-10.9318
  0
LINE
  8
0
 10
71.455
 20
-10.9318
 11
71.1724
 21
-10.9318
  0
LINE
  8
0
 10
-48.8276
 20
-10.9318
 11
-49.1079
 21
-10.8964
  0
LINE
  8
0
 10
-49.1079
 20
-10.8964
 11
-49.3816
 21
-10.8262
  0
LINE
  8
0
 10
-49.3816
 20
-10.8262
 11
-49.6443
 21
-10.7221
  0
LINE
  8
0
 10
-49.6443
 20
-10.7221
 11
-49.8919
 21
-10.586
  0
LINE
  8
0
 10
-49.8919
 20
-10.586
 11
-50.1205
 21
-10.4199
  0
LINE
  8
0
 10
-50.1205
 20
-10.4199
 11
-50.3265
 21
-10.2265
  0
LINE
  8
0
 10
-50.3265
 20
-10.2265
 11
-50.5066
 21
-10.0088
  0
LINE
  8
0
 10
-50.5066
 20
-10.0088
 11
-50.658
 21
-9.77023
  0
LINE
  8
0
 10
-50.658
 20
-9.77023
 11
-50.7783
 21
-9.51456
  0
LINE
  8
0
 10
-50.7783
 20
-9.51456
 11
-50.8656
 21
-9.24583
  0
LINE
  8
0
 10
-50.8656
 20
-9.24583
 11
-50.9185
 21
-8.96828
  0
LINE
  8
0
 10
-50.9185
 20
-8.96828
 11
-50.9363
 21
-8.68628
  0
LINE
  8
0
 10
-50.9363
 20
-8.68628
 11
-50.9185
 21
-8.40428
  0
LINE
  8
0
 10
-50.9185
 20
-8.40428
 11
-50.8656
 21
-8.12672
  0
LINE
  8
0
 10
-50.8656
 20
-8.12672
 11
-50.7783
 21
-7.858
  0
LINE
  8
0
 10
-50.7783
 20
-7.858
 11
-50.658
 21
-7.60234
  0
LINE
  8
0
 10
-50.658
 20
-7.60234
 11
-50.5066
 21
-7.36377
  0
LINE
  8
0
 10
-50.5066
 20
-7.36377
 11
-50.3265
 21
-7.14606
  0
LINE
  8
0
 10
-50.3265
 20
-7.14606
 11
-50.1205
 21
-6.95262
  0
LINE
  8
0
 10
-50.1205
 20
-6.95262
 11
-49.8919
 21
-6.78654
  0
LINE
  8
0
 10
-49.8919
 20
-6.78654
 11
-49.6443
 21
-6.65042
  0
LINE
  8
0
 10
-49.6443
 20
-6.65042
 11
-49.3816
 21
-6.5464
  0
LINE
  8
0
 10
-49.3816
 20
-6.5464
 11
-49.1079
 21
-6.47614
  0
LINE
  8
0
 10
-49.1079
 20
-6.47614
 11
-48.8276
 21
-6.44072
  0
LINE
  8
0
 10
-48.8276
 20
-6.44072
 11
-48.545
 21
-6.44072
  0
LINE
  8
0
 10
-48.545
 20
-6.44072
 11
-48.2647
 21
-6.47614
  0
LINE
  8
0
 10
-48.2647
 20
-6.47614
 11
-47.991
 21
-6.5464
  0
LINE
  8
0
 10
-47.991
 20
-6.5464
 11
-47.7283
 21
-6.65042
  0
LINE
  8
0
 10
-47.7283
 20
-6.65042
 11
-47.4807
 21
-6.78654
  0
LINE
  8
0
 10
-47.4807
 20
-6.78654
 11
-47.2521
 21
-6.95262
  0
LINE
  8
0
 10
-47.2521
 20
-6.95262
 11
-47.0461
 21
-7.14606
  0
LINE
  8
0
 10
-47.0461
 20
-7.14606
 11
-46.866
 21
-7.36377
  0
LINE
  8
0
 10
-46.866
 20
-7.36377
 11
-46.7146
 21
-7.60234
  0
LINE
  8
0
 10
-46.7146
 20
-7.60234
 11
-46.5943
 21
-7.858
  0
LINE
  8
0
 10
-46.5943
 20
-7.858
 11
-46.507
 21
-8.12672
  0
LINE
  8
0
 10
-46.507
 20
-8.12672
 11
-46.454
 21
-8.40428
  0
LINE
  8
0
 10
-46.454
 20
-8.40428
 11
-46.4363
 21
-8.68628
  0
LINE
  8
0
 10
-46.4363
 20
-8.68628
 11
-46.454
 21
-8.96828
  0
LINE
  8
0
 10
-46.454
 20
-8.96828
 11
-46.507
 21
-9.24583
  0
LINE
  8
0
 10
-46.507
 20
-9.24583
 11
-46.5943
 21
-9.51456
  0
LINE
  8
0
 10
-46.5943
 20
-9.51456
 11
-46.7146
 21
-9.77023
  0
LINE
  8
0
 10
-46.7146
 20
-9.77023
 11
-46.866
 21
-10.0088
  0
LINE
  8
0
 10
-46.866
 20
-10.0088
 11
-47.0461
 21
-10.2265
  0
LINE
  8
0
 10
-47.0461
 20
-10.2265
 11
-47.2521
 21
-10.4199
  0
LINE
  8
0
 10
-47.2521
 20
-10.4199
 11
-47.4807
 21
-10.586
  0
LINE
  8
0
 10
-47.4807
 20
-10.586
 11
-47.7283
 21
-10.7221
  0
LINE
  8
0
 10
-47.7283
 20
-10.7221
 11
-47.991
 21
-10.8262
  0
LINE
  8
0
 10
-47.991
 20
-10.8262
 11
-48.2647
 21
-10.8964
  0
LINE
  8
0
 10
-48.2647
 20
-10.8964
 11
-48.545
 21
-10.9318
  0
LINE
  8
0
 10
-48.545
 20
-10.9318
 11
-48.8276
 21
-10.9318
  0
LINE
  8
0
 10
-71.455
 20
-10.9318
 11
-71.7353
 21
-10.8964
  0
LINE
  8
0
 10
-71.7353
 20
-10.8964
 11
-72.009
 21
-10.8262
  0
LINE
  8
0
 10
-72.009
 20
-10.8262
 11
-72.2717
 21
-10.7221
  0
LINE
  8
0
 10
-72.2717
 20
-10.7221
 11
-72.5193
 21
-10.586
  0
LINE
  8
0
 10
-72.5193
 20
-10.586
 11
-72.7479
 21
-10.4199
  0
LINE
  8
0
 10
-72.7479
 20
-10.4199
 11
-72.9539
 21
-10.2265
  0
LINE
  8
0
 10
-72.9539
 20
-10.2265
 11
-73.134
 21
-10.0088
  0
LINE
  8
0
 10
-73.134
 20
-10.0088
 11
-73.2854
 21
-9.77023
  0
LINE
  8
0
 10
-73.2854
 20
-9.77023
 11
-73.4057
 21
-9.51456
  0
LINE
  8
0
 10
-73.4057
 20
-9.51456
 11
-73.493
 21
-9.24583
  0
LINE
  8
0
 10
-73.493
 20
-9.24583
 11
-73.546
 21
-8.96828
  0
LINE
  8
0
 10
-73.546
 20
-8.96828
 11
-73.5637
 21
-8.68628
  0
LINE
  8
0
 10
-73.5637
 20
-8.68628
 11
-73.546
 21
-8.40428
  0
LINE
  8
0
 10
-73.546
 20
-8.40428
 11
-73.493
 21
-8.12672
  0
LINE
  8
0
 10
-73.493
 20
-8.12672
 11
-73.4057
 21
-7.858
  0
LINE
  8
0
 10
-73.4057
 20
-7.858
 11
-73.2854
 21
-7.60234
  0
LINE
  8
0
 10
-73.2854
 20
-7.60234
 11
-73.134
 21
-7.36377
  0
LINE
  8
0
 10
-73.134
 20
-7.36377
 11
-72.9539
 21
-7.14606
  0
LINE
  8
0
 10
-72.9539
 20
-7.14606
 11
-72.7479
 21
-6.95262
  0
LINE
  8
0
 10
-72.7479
 20
-6.95262
 11
-72.5193
 21
-6.78654
  0
LINE
  8
0
 10
-72.5193
 20
-6.78654
 11
-72.2717
 21
-6.65042
  0
LINE
  8
0
 10
-72.2717
 20
-6.65042
 11
-72.009
 21
-6.5464
  0
LINE
  8
0
 10
-72.009
 20
-6.5464
 11
-71.7353
 21
-6.47614
  0
LINE
  8
0
 10
-71.7353
 20
-6.47614
 11
-71.455
 21
-6.44072
  0
LINE
  8
0
 10
-71.455
 20
-6.44072
 11
-71.1724
 21
-6.44072
  0
LINE
  8
0
 10
-71.1724
 20
-6.44072
 11
-70.8921
 21
-6.47614
  0
LINE
  8
0
 10
-70.8921
 20
-6.47614
 11
-70.6184
 21
-6.5464
  0
LINE
  8
0
 10
-70.6184
 20
-6.5464
 11
-70.3557
 21
-6.65042
  0
LINE
  8
0
 10
-70.3557
 20
-6.65042
 11
-70.1081
 21
-6.78654
  0
LINE
  8
0
 10
-70.1081
 20
-6.78654
 11
-69.8795
 21
-6.95262
  0
LINE
  8
0
 10
-69.8795
 20
-6.95262
 11
-69.6735
 21
-7.14606
  0
LINE
  8
0
 10
-69.6735
 20
-7.14606
 11
-69.4934
 21
-7.36377
  0
LINE
  8
0
 10
-69.4934
 20
-7.36377
 11
-69.342
 21
-7.60234
  0
LINE
  8
0
 10
-69.342
 20
-7.60234
 11
-69.2217
 21
-7.858
  0
LINE
  8
0
 10
-69.2217
 20
-7.858
 11
-69.1344
 21
-8.12672
  0
LINE
  8
0
 10
-69.1344
 20
-8.12672
 11
-69.0814
 21
-8.40428
  0
LINE
  8
0
 10
-69.0814
 20
-8.40428
 11
-69.0637
 21
-8.68628
  0
LINE
  8
0
 10
-69.0637
 20
-8.68628
 11
-69.0814
 21
-8.96828
  0
LINE
  8
0
 10
-69.0814
 20
-8.96828
 11
-69.1344
 21
-9.24583
  0
LINE
  8
0
 10
-69.1344
 20
-9.24583
 11
-69.2217
 21
-9.51456
  0
LINE
  8
0
 10
-69.2217
 20
-9.51456
 11
-69.342
 21
-9.77023
  0
LINE
  8
0
 10
-69.342
 20
-9.77023
 11
-69.4934
 21
-10.0088
  0
LINE
  8
0
 10
-69.4934
 20
-10.0088
 11
-69.6735
 21
-10.2265
  0
LINE
  8
0
 10
-69.6735
 20
-10.2265
 11
-69.8795
 21
-10.4199
  0
LINE
  8
0
 10
-69.8795
 20
-10.4199
 11
-70.1081
 21
-10.586
  0
LINE
  8
0
 10
-70.1081
 20
-10.586
 11
-70.3557
 21
-10.7221
  0
LINE
  8
0
 10
-70.3557
 20
-10.7221
 11
-70.6184
 21
-10.8262
  0
LINE
  8
0
 10
-70.6184
 20
-10.8262
 11
-70.8921
 21
-10.8964
  0
LINE
  8
0
 10
-70.8921
 20
-10.8964
 11
-71.1724
 21
-10.9318
  0
LINE
  8
0
 10
-71.1724
 20
-10.9318
 11
-71.455
 21
-10.9318
  0
LINE
  8
0
 10
48.545
 20
-10.9318
 11
48.2647
 21
-10.8964
  0
LINE
  8
0
 10
48.2647
 20
-10.8964
 11
47.991
 21
-10.8262
  0
LINE
  8
0
 10
47.991
 20
-10.8262
 11
47.7283
 21
-10.7221
  0
LINE
  8
0
 10
47.7283
 20
-10.7221
 11
47.4807
 21
-10.586
  0
LINE
  8
0
 10
47.4807
 20
-10.586
 11
47.2521
 21
-10.4199
  0
LINE
  8
0
 10
47.2521
 20
-10.4199
 11
47.0461
 21
-10.2265
  0
LINE
  8
0
 10
47.0461
 20
-10.2265
 11
46.866
 21
-10.0088
  0
LINE
  8
0
 10
46.866
 20
-10.0088
 11
46.7146
 21
-9.77023
  0
LINE
  8
0
 10
46.7146
 20
-9.77023
 11
46.5943
 21
-9.51456
  0
LINE
  8
0
 10
46.5943
 20
-9.51456
 11
46.507
 21
-9.24583
  0
LINE
  8
0
 10
46.507
 20
-9.24583
 11
46.454
 21
-8.96828
  0
LINE
  8
0
 10
46.454
 20
-8.96828
 11
46.4363
 21
-8.68628
  0
LINE
  8
0
 10
46.4363
 20
-8.68628
 11
46.454
 21
-8.40428
  0
LINE
  8
0
 10
46.454
 20
-8.40428
 11
46.507
 21
-8.12672
  0
LINE
  8
0
 10
46.507
 20
-8.12672
 11
46.5943
 21
-7.858
  0
LINE
  8
0
 10
46.5943
 20
-7.858
 11
46.7146
 21
-7.60234
  0
LINE
  8
0
 10
46.7146
 20
-7.60234
 11
46.866
 21
-7.36377
  0
LINE
  8
0
 10
46.866
 20
-7.36377
 11
47.0461
 21
-7.14606
  0
LINE
  8
0
 10
47.0461
 20
-7.14606
 11
47.2521
 21
-6.95262
  0
LINE
  8
0
 10
47.2521
 20
-6.95262
 11
47.4807
 21
-6.78654
  0
LINE
  8
0
 10
47.4807
 20
-6.78654
 11
47.7283
 21
-6.65042
  0
LINE
  8
0
 10
47.7283
 20
-6.65042
 11
47.991
 21
-6.5464
  0
LINE
  8
0
 10
47.991
 20
-6.5464
 11
48.2647
 21
-6.47614
  0
LINE
  8
0
 10
48.2647
 20
-6.47614
 11
48.545
 21
-6.44072
  0
LINE
  8
0
 10
48.545
 20
-6.44072
 11
48.8276
 21
-6.44072
  0
LINE
  8
0
 10
48.8276
 20
-6.44072
 11
49.1079
 21
-6.47614
  0
LINE
  8
0
 10
49.1079
 20
-6.47614
 11
49.3816
 21
-6.5464
  0
LINE
  8
0
 10
49.3816
 20
-6.5464
 11
49.6443
 21
-6.65042
  0
LINE
  8
0
 10
49.6443
 20
-6.65042
 11
49.8919
 21
-6.78654
  0
LINE
  8
0
 10
49.8919
 20
-6.78654
 11
50.1205
 21
-6.95262
  0
LINE
  8
0
 10
50.1205
 20
-6.95262
 11
50.3265
 21
-7.14606
  0
LINE
  8
0
 10
50.3265
 20
-7.14606
 11
50.5066
 21
-7.36377
  0
LINE
  8
0
 10
50.5066
 20
-7.36377
 11
50.658
 21
-7.60234
  0
LINE
  8
0
 10
50.658
 20
-7.60234
 11
50.7783
 21
-7.858
  0
LINE
  8
0
 10
50.7783
 20
-7.858
 11
50.8656
 21
-8.12672
  0
LINE
  8
0
 10
50.8656
 20
-8.12672
 11
50.9185
 21
-8.40428
  0
LINE
  8
0
 10
50.9185
 20
-8.40428
 11
50.9363
 21
-8.68628
  0
LINE
  8
0
 10
50.9363
 20
-8.68628
 11
50.9185
 21
-8.96828
  0
LINE
  8
0
 10
50.9185
 20
-8.96828
 11
50.8656
 21
-9.24583
  0
LINE
  8
0
 10
50.8656
 20
-9.24583
 11
50.7783
 21
-9.51456
  0
LINE
  8
0
 10
50.7783
 20
-9.51456
 11
50.658
 21
-9.77023
  0
LINE
  8
0
 10
50.658
 20
-9.77023
 11
50.5066
 21
-10.0088
  0
LINE
  8
0
 10
50.5066
 20
-10.0088
 11
50.3265
 21
-10.2265
  0
LINE
  8
0
 10
50.3265
 20
-10.2265
 11
50.1205
 21
-10.4199
  0
LINE
  8
0
 10
50.1205
 20
-10.4199
 11
49.8919
 21
-10.586
  0
LINE
  8
0
 10
49.8919
 20
-10.586
 11
49.6443
 21
-10.7221
  0
LINE
  8
0
 10
49.6443
 20
-10.7221
 11
49.3816
 21
-10.8262
  0
LINE
  8
0
 10
49.3816
 20
-10.8262
 11
49.1079
 21
-10.8964
  0
LINE
  8
0
 10
49.1079
 20
-10.8964
 11
48.8276
 21
-10.9318
  0
LINE
  8
0
 10
48.8276
 20
-10.9318
 11
48.545
 21
-10.9318
  0
LINE
  8
0
 10
59.5605
 20
-26.9862
 11
58.6883
 21
-26.876
  0
LINE
  8
0
 10
58.6883
 20
-26.876
 11
57.8369
 21
-26.6574
  0
LINE
  8
0
 10
57.8369
 20
-26.6574
 11
57.0195
 21
-26.3338
  0
LINE
  8
0
 10
57.0195
 20
-26.3338
 11
56.2492
 21
-25.9103
  0
LINE
  8
0
 10
56.2492
 20
-25.9103
 11
55.538
 21
-25.3936
  0
LINE
  8
0
 10
55.538
 20
-25.3936
 11
54.8972
 21
-24.7918
  0
LINE
  8
0
 10
54.8972
 20
-24.7918
 11
54.3369
 21
-24.1145
  0
LINE
  8
0
 10
54.3369
 20
-24.1145
 11
53.8658
 21
-23.3723
  0
LINE
  8
0
 10
53.8658
 20
-23.3723
 11
53.4916
 21
-22.5769
  0
LINE
  8
0
 10
53.4916
 20
-22.5769
 11
53.2199
 21
-21.7408
  0
LINE
  8
0
 10
53.2199
 20
-21.7408
 11
53.0552
 21
-20.8773
  0
LINE
  8
0
 10
53.0552
 20
-20.8773
 11
53
 21
-20
  0
LINE
  8
0
 10
53
 20
-20
 11
53.0552
 21
-19.1227
  0
LINE
  8
0
 10
53.0552
 20
-19.1227
 11
53.2199
 21
-18.2592
  0
LINE
  8
0
 10
53.2199
 20
-18.2592
 11
53.4916
 21
-17.4231
  0
LINE
  8
0
 10
53.4916
 20
-17.4231
 11
53.8658
 21
-16.6277
  0
LINE
  8
0
 10
53.8658
 20
-16.6277
 11
54.3369
 21
-15.8855
  0
LINE
  8
0
 10
54.3369
 20
-15.8855
 11
54.8972
 21
-15.2082
  0
LINE
  8
0
 10
54.8972
 20
-15.2082
 11
55.538
 21
-14.6064
  0
LINE
  8
0
 10
55.538
 20
-14.6064
 11
56.2492
 21
-14.0897
  0
LINE
  8
0
 10
56.2492
 20
-14.0897
 11
57.0195
 21
-13.6662
  0
LINE
  8
0
 10
57.0195
 20
-13.6662
 11
57.8369
 21
-13.3426
  0
LINE
  8
0
 10
57.8369
 20
-13.3426
 11
58.6883
 21
-13.124
  0
LINE
  8
0
 10
58.6883
 20
-13.124
 11
59.5605
 21
-13.0138
  0
LINE
  8
0
 10
59.5605
 20
-13.0138
 11
60.4395
 21
-13.0138
  0
LINE
  8
0
 10
60.4395
 20
-13.0138
 11
61.3117
 21
-13.124
  0
LINE
  8
0
 10
61.3117
 20
-13.124
 11
62.1631
 21
-13.3426
  0
LINE
  8
0
 10
62.1631
 20
-13.3426
 11
62.9805
 21
-13.6662
  0
LINE
  8
0
 10
62.9805
 20
-13.6662
 11
63.7508
 21
-14.0897
  0
LINE
  8
0
 10
63.7508
 20
-14.0897
 11
64.462
 21
-14.6064
  0
LINE
  8
0
 10
64.462
 20
-14.6064
 11
65.1028
 21
-15.2082
  0
LINE
  8
0
 10
65.1028
 20
-15.2082
 11
65.6631
 21
-15.8855
  0
LINE
  8
0
 10
65.6631
 20
-15.8855
 11
66.1341
 21
-16.6277
  0
LINE
  8
0
 10
66.1341
 20
-16.6277
 11
66.5084
 21
-17.4231
  0
LINE
  8
0
 10
66.5084
 20
-17.4231
 11
66.7801
 21
-18.2592
  0
LINE
  8
0
 10
66.7801
 20
-18.2592
 11
66.9448
 21
-19.1227
  0
LINE
  8
0
 10
66.9448
 20
-19.1227
 11
67
 21
-20
  0
LINE
  8
0
 10
67
 20
-20
 11
66.9448
 21
-20.8773
  0
LINE
  8
0
 10
66.9448
 20
-20.8773
 11
66.7801
 21
-21.7408
  0
LINE
  8
0
 10
66.7801
 20
-21.7408
 11
66.5084
 21
-22.5769
  0
LINE
  8
0
 10
66.5084
 20
-22.5769
 11
66.1341
 21
-23.3723
  0
LINE
  8
0
 10
66.1341
 20
-23.3723
 11
65.6631
 21
-24.1145
  0
LINE
  8
0
 10
65.6631
 20
-24.1145
 11
65.1028
 21
-24.7918
  0
LINE
  8
0
 10
65.1028
 20
-24.7918
 11
64.462
 21
-25.3936
  0
LINE
  8
0
 10
64.462
 20
-25.3936
 11
63.7508
 21
-25.9103
  0
LINE
  8
0
 10
63.7508
 20
-25.9103
 11
62.9805
 21
-26.3338
  0
LINE
  8
0
 10
62.9805
 20
-26.3338
 11
62.1631
 21
-26.6574
  0
LINE
  8
0
 10
62.1631
 20
-26.6574
 11
61.3117
 21
-26.876
  0
LINE
  8
0
 10
61.3117
 20
-26.876
 11
60.4395
 21
-26.9862
  0
LINE
  8
0
 10
60.4395
 20
-26.9862
 11
59.5605
 21
-26.9862
  0
LINE
  8
0
 10
-60.4395
 20
-26.9862
 11
-61.3117
 21
-26.876
  0
LINE
  8
0
 10
-61.3117
 20
-26.876
 11
-62.1631
 21
-26.6574
  0
LINE
  8
0
 10
-62.1631
 20
-26.6574
 11
-62.9805
 21
-26.3338
  0
LINE
  8
0
 10
-62.9805
 20
-26.3338
 11
-63.7508
 21
-25.9103
  0
LINE
  8
0
 10
-63.7508
 20
-25.9103
 11
-64.462
 21
-25.3936
  0
LINE
  8
0
 10
-64.462
 20
-25.3936
 11
-65.1028
 21
-24.7918
  0
LINE
  8
0
 10
-65.1028
 20
-24.7918
 11
-65.6631
 21
-24.1145
  0
LINE
  8
0
 10
-65.6631
 20
-24.1145
 11
-66.1341
 21
-23.3723
  0
LINE
  8
0
 10
-66.1341
 20
-23.3723
 11
-66.5084
 21
-22.5769
  0
LINE
  8
0
 10
-66.5084
 20
-22.5769
 11
-66.7801
 21
-21.7408
  0
LINE
  8
0
 10
-66.7801
 20
-21.7408
 11
-66.9448
 21
-20.8773
  0
LINE
  8
0
 10
-66.9448
 20
-20.8773
 11
-67
 21
-20
  0
LINE
  8
0
 10
-67
 20
-20
 11
-66.9448
 21
-19.1227
  0
LINE
  8
0
 10
-66.9448
 20
-19.1227
 11
-66.7801
 21
-18.2592
  0
LINE
  8
0
 10
-66.7801
 20
-18.2592
 11
-66.5084
 21
-17.4231
  0
LINE
  8
0
 10
-66.5084
 20
-17.4231
 11
-66.1341
 21
-16.6277
  0
LINE
  8
0
 10
-66.1341
 20
-16.6277
 11
-65.6631
 21
-15.8855
  0
LINE
  8
0
 10
-65.6631
 20
-15.8855
 11
-65.1028
 21
-15.2082
  0
LINE
  8
0
 10
-65.1028
 20
-15.2082
 11
-64.462
 21
-14.6064
  0
LINE
  8
0
 10
-64.462
 20
-14.6064
 11
-63.7508
 21
-14.0897
  0
LINE
  8
0
 10
-63.7508
 20
-14.0897
 11
-62.9805
 21
-13.6662
  0
LINE
  8
0
 10
-62.9805
 20
-13.6662
 11
-62.1631
 21
-13.3426
  0
LINE
  8
0
 10
-62.1631
 20
-13.3426
 11
-61.3117
 21
-13.124
  0
LINE
  8
0
 10
-61.3117
 20
-13.124
 11
-60.4395
 21
-13.0138
  0
LINE
  8
0
 10
-60.4395
 20
-13.0138
 11
-59.5605
 21
-13.0138
  0
LINE
  8
0
 10
-59.5605
 20
-13.0138
 11
-58.6883
 21
-13.124
  0
LINE
  8
0
 10
-58.6883
 20
-13.124
 11
-57.8369
 21
-13.3426
  0
LINE
  8
0
 10
-57.8369
 20
-13.3426
 11
-57.0195
 21
-13.6662
  0
LINE
  8
0
 10
-57.0195
 20
-13.6662
 11
-56.2492
 21
-14.0897
  0
LINE
  8
0
 10
-56.2492
 20
-14.0897
 11
-55.538
 21
-14.6064
  0
LINE
  8
0
 10
-55.538
 20
-14.6064
 11
-54.8972
 21
-15.2082
  0
LINE
  8
0
 10
-54.8972
 20
-15.2082
 11
-54.3369
 21
-15.8855
  0
LINE
  8
0
 10
-54.3369
 20
-15.8855
 11
-53.8658
 21
-16.6277
  0
LINE
  8
0
 10
-53.8658
 20
-16.6277
 11
-53.4916
 21
-17.4231
  0
LINE
  8
0
 10
-53.4916
 20
-17.4231
 11
-53.2199
 21
-18.2592
  0
LINE
  8
0
 10
-53.2199
 20
-18.2592
 11
-53.0552
 21
-19.1227
  0
LINE
  8
0
 10
-53.0552
 20
-19.1227
 11
-53
 21
-20
  0
LINE
  8
0
 10
-53
 20
-20
 11
-53.0552
 21
-20.8773
  0
LINE
  8
0
 10
-53.0552
 20
-20.8773
 11
-53.2199
 21
-21.7408
  0
LINE
  8
0
 10
-53.2199
 20
-21.7408
 11
-53.4916
 21
-22.5769
  0
LINE
  8
0
 10
-53.4916
 20
-22.5769
 11
-53.8658
 21
-23.3723
  0
LINE
  8
0
 10
-53.8658
 20
-23.3723
 11
-54.3369
 21
-24.1145
  0
LINE
  8
0
 10
-54.3369
 20
-24.1145
 11
-54.8972
 21
-24.7918
  0
LINE
  8
0
 10
-54.8972
 20
-24.7918
 11
-55.538
 21
-25.3936
  0
LINE
  8
0
 10
-55.538
 20
-25.3936
 11
-56.2492
 21
-25.9103
  0
LINE
  8
0
 10
-56.2492
 20
-25.9103
 11
-57.0195
 21
-26.3338
  0
LINE
  8
0
 10
-57.0195
 20
-26.3338
 11
-57.8369
 21
-26.6574
  0
LINE
  8
0
 10
-57.8369
 20
-26.6574
 11
-58.6883
 21
-26.876
  0
LINE
  8
0
 10
-58.6883
 20
-26.876
 11
-59.5605
 21
-26.9862
  0
LINE
  8
0
 10
-59.5605
 20
-26.9862
 11
-60.4395
 21
-26.9862
  0
LINE
  8
0
 10
5.55324
 20
-17.8399
 11
5.34767
 21
-17.8139
  0
LINE
  8
0
 10
5.34767
 20
-17.8139
 11
5.14697
 21
-17.7624
  0
LINE
  8
0
 10
5.14697
 20
-17.7624
 11
4.95432
 21
-17.6861
  0
LINE
  8
0
 10
4.95432
 20
-17.6861
 11
4.77274
 21
-17.5863
  0
LINE
  8
0
 10
4.77274
 20
-17.5863
 11
4.6051
 21
-17.4645
  0
LINE
  8
0
 10
4.6051
 20
-17.4645
 11
4.45406
 21
-17.3226
  0
LINE
  8
0
 10
4.45406
 20
-17.3226
 11
4.32198
 21
-17.163
  0
LINE
  8
0
 10
4.32198
 20
-17.163
 11
4.21094
 21
-16.988
  0
LINE
  8
0
 10
4.21094
 20
-16.988
 11
4.12271
 21
-16.8005
  0
LINE
  8
0
 10
4.12271
 20
-16.8005
 11
4.05869
 21
-16.6035
  0
LINE
  8
0
 10
4.05869
 20
-16.6035
 11
4.01985
 21
-16.3999
  0
LINE
  8
0
 10
4.01985
 20
-16.3999
 11
4.00685
 21
-16.1931
  0
LINE
  8
0
 10
4.00685
 20
-16.1931
 11
4.01985
 21
-15.9863
  0
LINE
  8
0
 10
4.01985
 20
-15.9863
 11
4.05869
 21
-15.7828
  0
LINE
  8
0
 10
4.05869
 20
-15.7828
 11
4.12271
 21
-15.5857
  0
LINE
  8
0
 10
4.12271
 20
-15.5857
 11
4.21094
 21
-15.3982
  0
LINE
  8
0
 10
4.21094
 20
-15.3982
 11
4.32198
 21
-15.2233
  0
LINE
  8
0
 10
4.32198
 20
-15.2233
 11
4.45406
 21
-15.0636
  0
LINE
  8
0
 10
4.45406
 20
-15.0636
 11
4.6051
 21
-14.9218
  0
LINE
  8
0
 10
4.6051
 20
-14.9218
 11
4.77274
 21
-14.8
  0
LINE
  8
0
 10
4.77274
 20
-14.8
 11
4.95432
 21
-14.7002
  0
LINE
  8
0
 10
4.95432
 20
-14.7002
 11
5.14697
 21
-14.6239
  0
LINE
  8
0
 10
5.14697
 20
-14.6239
 11
5.34767
 21
-14.5724
  0
LINE
  8
0
 10
5.34767
 20
-14.5724
 11
5.55324
 21
-14.5464
  0
LINE
  8
0
 10
5.55324
 20
-14.5464
 11
5.76045
 21
-14.5464
  0
LINE
  8
0
 10
5.76045
 20
-14.5464
 11
5.96602
 21
-14.5724
  0
LINE
  8
0
 10
5.96602
 20
-14.5724
 11
6.16672
 21
-14.6239
  0
LINE
  8
0
 10
6.16672
 20
-14.6239
 11
6.35938
 21
-14.7002
  0
LINE
  8
0
 10
6.35938
 20
-14.7002
 11
6.54095
 21
-14.8
  0
LINE
  8
0
 10
6.54095
 20
-14.8
 11
6.7086
 21
-14.9218
  0
LINE
  8
0
 10
6.7086
 20
-14.9218
 11
6.85965
 21
-15.0636
  0
LINE
  8
0
 10
6.85965
 20
-15.0636
 11
6.99173
 21
-15.2233
  0
LINE
  8
0
 10
6.99173
 20
-15.2233
 11
7.10275
 21
-15.3982
  0
LINE
  8
0
 10
7.10275
 20
-15.3982
 11
7.19098
 21
-15.5857
  0
LINE
  8
0
 10
7.19098
 20
-15.5857
 11
7.255
 21
-15.7828
  0
LINE
  8
0
 10
7.255
 20
-15.7828
 11
7.29384
 21
-15.9863
  0
LINE
  8
0
 10
7.29384
 20
-15.9863
 11
7.30685
 21
-16.1931
  0
LINE
  8
0
 10
7.30685
 20
-16.1931
 11
7.29384
 21
-16.3999
  0
LINE
  8
0
 10
7.29384
 20
-16.3999
 11
7.255
 21
-16.6035
  0
LINE
  8
0
 10
7.255
 20
-16.6035
 11
7.19098
 21
-16.8005
  0
LINE
  8
0
 10
7.19098
 20
-16.8005
 11
7.10275
 21
-16.988
  0
LINE
  8
0
 10
7.10275
 20
-16.988
 11
6.99173
 21
-17.163
  0
LINE
  8
0
 10
6.99173
 20
-17.163
 11
6.85965
 21
-17.3226
  0
LINE
  8
0
 10
6.85965
 20
-17.3226
 11
6.7086
 21
-17.4645
  0
LINE
  8
0
 10
6.7086
 20
-17.4645
 11
6.54095
 21
-17.5863
  0
LINE
  8
0
 10
6.54095
 20
-17.5863
 11
6.35938
 21
-17.6861
  0
LINE
  8
0
 10
6.35938
 20
-17.6861
 11
6.16672
 21
-17.7624
  0
LINE
  8
0
 10
6.16672
 20
-17.7624
 11
5.96602
 21
-17.8139
  0
LINE
  8
0
 10
5.96602
 20
-17.8139
 11
5.76045
 21
-17.8399
  0
LINE
  8
0
 10
5.76045
 20
-17.8399
 11
5.55324
 21
-17.8399
  0
LINE
  8
0
 10
-5.76045
 20
-17.8399
 11
-5.96602
 21
-17.8139
  0
LINE
  8
0
 10
-5.96602
 20
-17.8139
 11
-6.16672
 21
-17.7624
  0
LINE
  8
0
 10
-6.16672
 20
-17.7624
 11
-6.35938
 21
-17.6861
  0
LINE
  8
0
 10
-6.35938
 20
-17.6861
 11
-6.54095
 21
-17.5863
  0
LINE
  8
0
 10
-6.54095
 20
-17.5863
 11
-6.7086
 21
-17.4645
  0
LINE
  8
0
 10
-6.7086
 20
-17.4645
 11
-6.85965
 21
-17.3226
  0
LINE
  8
0
 10
-6.85965
 20
-17.3226
 11
-6.99173
 21
-17.163
  0
LINE
  8
0
 10
-6.99173
 20
-17.163
 11
-7.10275
 21
-16.988
  0
LINE
  8
0
 10
-7.10275
 20
-16.988
 11
-7.19098
 21
-16.8005
  0
LINE
  8
0
 10
-7.19098
 20
-16.8005
 11
-7.255
 21
-16.6035
  0
LINE
  8
0
 10
-7.255
 20
-16.6035
 11
-7.29384
 21
-16.3999
  0
LINE
  8
0
 10
-7.29384
 20
-16.3999
 11
-7.30685
 21
-16.1931
  0
LINE
  8
0
 10
-7.30685
 20
-16.1931
 11
-7.29384
 21
-15.9863
  0
LINE
  8
0
 10
-7.29384
 20
-15.9863
 11
-7.255
 21
-15.7828
  0
LINE
  8
0
 10
-7.255
 20
-15.7828
 11
-7.19098
 21
-15.5857
  0
LINE
  8
0
 10
-7.19098
 20
-15.5857
 11
-7.10275
 21
-15.3982
  0
LINE
  8
0
 10
-7.10275
 20
-15.3982
 11
-6.99173
 21
-15.2233
  0
LINE
  8
0
 10
-6.99173
 20
-15.2233
 11
-6.85965
 21
-15.0636
  0
LINE
  8
0
 10
-6.85965
 20
-15.0636
 11
-6.7086
 21
-14.9218
  0
LINE
  8
0
 10
-6.7086
 20
-14.9218
 11
-6.54095
 21
-14.8
  0
LINE
  8
0
 10
-6.54095
 20
-14.8
 11
-6.35938
 21
-14.7002
  0
LINE
  8
0
 10
-6.35938
 20
-14.7002
 11
-6.16672
 21
-14.6239
  0
LINE
  8
0
 10
-6.16672
 20
-14.6239
 11
-5.96602
 21
-14.5724
  0
LINE
  8
0
 10
-5.96602
 20
-14.5724
 11
-5.76045
 21
-14.5464
  0
LINE
  8
0
 10
-5.76045
 20
-14.5464
 11
-5.55324
 21
-14.5464
  0
LINE
  8
0
 10
-5.55324
 20
-14.5464
 11
-5.34767
 21
-14.5724
  0
LINE
  8
0
 10
-5.34767
 20
-14.5724
 11
-5.14697
 21
-14.6239
  0
LINE
  8
0
 10
-5.14697
 20
-14.6239
 11
-4.95432
 21
-14.7002
  0
LINE
  8
0
 10
-4.95432
 20
-14.7002
 11
-4.77274
 21
-14.8
  0
LINE
  8
0
 10
-4.77274
 20
-14.8
 11
-4.6051
 21
-14.9218
  0
LINE
  8
0
 10
-4.6051
 20
-14.9218
 11
-4.45406
 21
-15.0636
  0
LINE
  8
0
 10
-4.45406
 20
-15.0636
 11
-4.32198
 21
-15.2233
  0
LINE
  8
0
 10
-4.32198
 20
-15.2233
 11
-4.21094
 21
-15.3982
  0
LINE
  8
0
 10
-4.21094
 20
-15.3982
 11
-4.12271
 21
-15.5857
  0
LINE
  8
0
 10
-4.12271
 20
-15.5857
 11
-4.05869
 21
-15.7828
  0
LINE
  8
0
 10
-4.05869
 20
-15.7828
 11
-4.01985
 21
-15.9863
  0
LINE
  8
0
 10
-4.01985
 20
-15.9863
 11
-4.00685
 21
-16.1931
  0
LINE
  8
0
 10
-4.00685
 20
-16.1931
 11
-4.01985
 21
-16.3999
  0
LINE
  8
0
 10
-4.01985
 20
-16.3999
 11
-4.05869
 21
-16.6035
  0
LINE
  8
0
 10
-4.05869
 20
-16.6035
 11
-4.12271
 21
-16.8005
  0
LINE
  8
0
 10
-4.12271
 20
-16.8005
 11
-4.21094
 21
-16.988
  0
LINE
  8
0
 10
-4.21094
 20
-16.988
 11
-4.32198
 21
-17.163
  0
LINE
  8
0
 10
-4.32198
 20
-17.163
 11
-4.45406
 21
-17.3226
  0
LINE
  8
0
 10
-4.45406
 20
-17.3226
 11
-4.6051
 21
-17.4645
  0
LINE
  8
0
 10
-4.6051
 20
-17.4645
 11
-4.77274
 21
-17.5863
  0
LINE
  8
0
 10
-4.77274
 20
-17.5863
 11
-4.95432
 21
-17.6861
  0
LINE
  8
0
 10
-4.95432
 20
-17.6861
 11
-5.14697
 21
-17.7624
  0
LINE
  8
0
 10
-5.14697
 20
-17.7624
 11
-5.34767
 21
-17.8139
  0
LINE
  8
0
 10
-5.34767
 20
-17.8139
 11
-5.55324
 21
-17.8399
  0
LINE
  8
0
 10
-5.55324
 20
-17.8399
 11
-5.76045
 21
-17.8399
  0
LINE
  8
0
 10
-0.282547
 20
-26.3411
 11
-0.843201
 21
-26.2703
  0
LINE
  8
0
 10
-0.843201
 20
-26.2703
 11
-1.39056
 21
-26.1297
  0
LINE
  8
0
 10
-1.39056
 20
-26.1297
 11
-1.916
 21
-25.9217
  0
LINE
  8
0
 10
-1.916
 20
-25.9217
 11
-2.41121
 21
-25.6495
  0
LINE
  8
0
 10
-2.41121
 20
-25.6495
 11
-2.86839
 21
-25.3173
  0
LINE
  8
0
 10
-2.86839
 20
-25.3173
 11
-3.28035
 21
-24.9305
  0
LINE
  8
0
 10
-3.28035
 20
-24.9305
 11
-3.64056
 21
-24.495
  0
LINE
  8
0
 10
-3.64056
 20
-24.495
 11
-3.94337
 21
-24.0179
  0
LINE
  8
0
 10
-3.94337
 20
-24.0179
 11
-4.18399
 21
-23.5065
  0
LINE
  8
0
 10
-4.18399
 20
-23.5065
 11
-4.35861
 21
-22.9691
  0
LINE
  8
0
 10
-4.35861
 20
-22.9691
 11
-4.46451
 21
-22.414
  0
LINE
  8
0
 10
-4.46451
 20
-22.414
 11
-4.5
 21
-21.85
  0
LINE
  8
0
 10
-4.5
 20
-21.85
 11
-4.46451
 21
-21.286
  0
LINE
  8
0
 10
-4.46451
 20
-21.286
 11
-4.35861
 21
-20.7309
  0
LINE
  8
0
 10
-4.35861
 20
-20.7309
 11
-4.18399
 21
-20.1934
  0
LINE
  8
0
 10
-4.18399
 20
-20.1934
 11
-3.94337
 21
-19.6821
  0
LINE
  8
0
 10
-3.94337
 20
-19.6821
 11
-3.64056
 21
-19.205
  0
LINE
  8
0
 10
-3.64056
 20
-19.205
 11
-3.28035
 21
-18.7695
  0
LINE
  8
0
 10
-3.28035
 20
-18.7695
 11
-2.86839
 21
-18.3827
  0
LINE
  8
0
 10
-2.86839
 20
-18.3827
 11
-2.41121
 21
-18.0505
  0
LINE
  8
0
 10
-2.41121
 20
-18.0505
 11
-1.916
 21
-17.7783
  0
LINE
  8
0
 10
-1.916
 20
-17.7783
 11
-1.39056
 21
-17.5702
  0
LINE
  8
0
 10
-1.39056
 20
-17.5702
 11
-0.843201
 21
-17.4297
  0
LINE
  8
0
 10
-0.843201
 20
-17.4297
 11
-0.282547
 21
-17.3589
  0
LINE
  8
0
 10
-0.282547
 20
-17.3589
 11
0.282547
 21
-17.3589
  0
LINE
  8
0
 10
0.282547
 20
-17.3589
 11
0.843201
 21
-17.4297
  0
LINE
  8
0
 10
0.843201
 20
-17.4297
 11
1.39056
 21
-17.5702
  0
LINE
  8
0
 10
1.39056
 20
-17.5702
 11
1.916
 21
-17.7783
  0
LINE
  8
0
 10
1.916
 20
-17.7783
 11
2.41121
 21
-18.0505
  0
LINE
  8
0
 10
2.41121
 20
-18.0505
 11
2.86839
 21
-18.3827
  0
LINE
  8
0
 10
2.86839
 20
-18.3827
 11
3.28035
 21
-18.7695
  0
LINE
  8
0
 10
3.28035
 20
-18.7695
 11
3.64056
 21
-19.205
  0
LINE
  8
0
 10
3.64056
 20
-19.205
 11
3.94337
 21
-19.6821
  0
LINE
  8
0
 10
3.94337
 20
-19.6821
 11
4.18399
 21
-20.1934
  0
LINE
  8
0
 10
4.18399
 20
-20.1934
 11
4.35861
 21
-20.7309
  0
LINE
  8
0
 10
4.35861
 20
-20.7309
 11
4.46451
 21
-21.286
  0
LINE
  8
0
 10
4.46451
 20
-21.286
 11
4.5
 21
-21.85
  0
LINE
  8
0
 10
4.5
 20
-21.85
 11
4.46451
 21
-22.414
  0
LINE
  8
0
 10
4.46451
 20
-22.414
 11
4.35861
 21
-22.9691
  0
LINE
  8
0
 10
4.35861
 20
-22.9691
 11
4.18399
 21
-23.5065
  0
LINE
  8
0
 10
4.18399
 20
-23.5065
 11
3.94337
 21
-24.0179
  0
LINE
  8
0
 10
3.94337
 20
-24.0179
 11
3.64056
 21
-24.495
  0
LINE
  8
0
 10
3.64056
 20
-24.495
 11
3.28035
 21
-24.9305
  0
LINE
  8
0
 10
3.28035
 20
-24.9305
 11
2.86839
 21
-25.3173
  0
LINE
  8
0
 10
2.86839
 20
-25.3173
 11
2.41121
 21
-25.6495
  0
LINE
  8
0
 10
2.41121
 20
-25.6495
 11
1.916
 21
-25.9217
  0
LINE
  8
0
 10
1.916
 20
-25.9217
 11
1.39056
 21
-26.1297
  0
LINE
  8
0
 10
1.39056
 20
-26.1297
 11
0.843201
 21
-26.2703
  0
LINE
  8
0
 10
0.843201
 20
-26.2703
 11
0.282547
 21
-26.3411
  0
LINE
  8
0
 10
0.282547
 20
-26.3411
 11
-0.282547
 21
-26.3411
  0
LINE
  8
0
 10
-26.1036
 20
-21.6467
 11
-26.3092
 21
-21.6208
  0
LINE
  8
0
 10
-26.3092
 20
-21.6208
 11
-26.5099
 21
-21.5692
  0
LINE
  8
0
 10
-26.5099
 20
-21.5692
 11
-26.7025
 21
-21.493
  0
LINE
  8
0
 10
-26.7025
 20
-21.493
 11
-26.8841
 21
-21.3931
  0
LINE
  8
0
 10
-26.8841
 20
-21.3931
 11
-27.0517
 21
-21.2713
  0
LINE
  8
0
 10
-27.0517
 20
-21.2713
 11
-27.2028
 21
-21.1295
  0
LINE
  8
0
 10
-27.2028
 20
-21.1295
 11
-27.3349
 21
-20.9698
  0
LINE
  8
0
 10
-27.3349
 20
-20.9698
 11
-27.4459
 21
-20.7949
  0
LINE
  8
0
 10
-27.4459
 20
-20.7949
 11
-27.5341
 21
-20.6074
  0
LINE
  8
0
 10
-27.5341
 20
-20.6074
 11
-27.5982
 21
-20.4103
  0
LINE
  8
0
 10
-27.5982
 20
-20.4103
 11
-27.637
 21
-20.2068
  0
LINE
  8
0
 10
-27.637
 20
-20.2068
 11
-27.65
 21
-20
  0
LINE
  8
0
 10
-27.65
 20
-20
 11
-27.637
 21
-19.7932
  0
LINE
  8
0
 10
-27.637
 20
-19.7932
 11
-27.5982
 21
-19.5897
  0
LINE
  8
0
 10
-27.5982
 20
-19.5897
 11
-27.5341
 21
-19.3926
  0
LINE
  8
0
 10
-27.5341
 20
-19.3926
 11
-27.4459
 21
-19.2051
  0
LINE
  8
0
 10
-27.4459
 20
-19.2051
 11
-27.3349
 21
-19.0302
  0
LINE
  8
0
 10
-27.3349
 20
-19.0302
 11
-27.2028
 21
-18.8705
  0
LINE
  8
0
 10
-27.2028
 20
-18.8705
 11
-27.0517
 21
-18.7287
  0
LINE
  8
0
 10
-27.0517
 20
-18.7287
 11
-26.8841
 21
-18.6069
  0
LINE
  8
0
 10
-26.8841
 20
-18.6069
 11
-26.7025
 21
-18.507
  0
LINE
  8
0
 10
-26.7025
 20
-18.507
 11
-26.5099
 21
-18.4308
  0
LINE
  8
0
 10
-26.5099
 20
-18.4308
 11
-26.3092
 21
-18.3792
  0
LINE
  8
0
 10
-26.3092
 20
-18.3792
 11
-26.1036
 21
-18.3532
  0
LINE
  8
0
 10
-26.1036
 20
-18.3532
 11
-25.8964
 21
-18.3532
  0
LINE
  8
0
 10
-25.8964
 20
-18.3532
 11
-25.6908
 21
-18.3792
  0
LINE
  8
0
 10
-25.6908
 20
-18.3792
 11
-25.4901
 21
-18.4308
  0
LINE
  8
0
 10
-25.4901
 20
-18.4308
 11
-25.2975
 21
-18.507
  0
LINE
  8
0
 10
-25.2975
 20
-18.507
 11
-25.1159
 21
-18.6069
  0
LINE
  8
0
 10
-25.1159
 20
-18.6069
 11
-24.9482
 21
-18.7287
  0
LINE
  8
0
 10
-24.9482
 20
-18.7287
 11
-24.7972
 21
-18.8705
  0
LINE
  8
0
 10
-24.7972
 20
-18.8705
 11
-24.6651
 21
-19.0302
  0
LINE
  8
0
 10
-24.6651
 20
-19.0302
 11
-24.5541
 21
-19.2051
  0
LINE
  8
0
 10
-24.5541
 20
-19.2051
 11
-24.4659
 21
-19.3926
  0
LINE
  8
0
 10
-24.4659
 20
-19.3926
 11
-24.4018
 21
-19.5897
  0
LINE
  8
0
 10
-24.4018
 20
-19.5897
 11
-24.363
 21
-19.7932
  0
LINE
  8
0
 10
-24.363
 20
-19.7932
 11
-24.35
 21
-20
  0
LINE
  8
0
 10
-24.35
 20
-20
 11
-24.363
 21
-20.2068
  0
LINE
  8
0
 10
-24.363
 20
-20.2068
 11
-24.4018
 21
-20.4103
  0
LINE
  8
0
 10
-24.4018
 20
-20.4103
 11
-24.4659
 21
-20.6074
  0
LINE
  8
0
 10
-24.4659
 20
-20.6074
 11
-24.5541
 21
-20.7949
  0
LINE
  8
0
 10
-24.5541
 20
-20.7949
 11
-24.6651
 21
-20.9698
  0
LINE
  8
0
 10
-24.6651
 20
-20.9698
 11
-24.7972
 21
-21.1295
  0
LINE
  8
0
 10
-24.7972
 20
-21.1295
 11
-24.9482
 21
-21.2713
  0
LINE
  8
0
 10
-24.9482
 20
-21.2713
 11
-25.1159
 21
-21.3931
  0
LINE
  8
0
 10
-25.1159
 20
-21.3931
 11
-25.2975
 21
-21.493
  0
LINE
  8
0
 10
-25.2975
 20
-21.493
 11
-25.4901
 21
-21.5692
  0
LINE
  8
0
 10
-25.4901
 20
-21.5692
 11
-25.6908
 21
-21.6208
  0
LINE
  8
0
 10
-25.6908
 20
-21.6208
 11
-25.8964
 21
-21.6467
  0
LINE
  8
0
 10
-25.8964
 20
-21.6467
 11
-26.1036
 21
-21.6467
  0
LINE
  8
0
 10
-5.76045
 20
-29.1536
 11
-5.96602
 21
-29.1276
  0
LINE
  8
0
 10
-5.96602
 20
-29.1276
 11
-6.16672
 21
-29.0761
  0
LINE
  8
0
 10
-6.16672
 20
-29.0761
 11
-6.35938
 21
-28.9998
  0
LINE
  8
0
 10
-6.35938
 20
-28.9998
 11
-6.54095
 21
-28.9
  0
LINE
  8
0
 10
-6.54095
 20
-28.9
 11
-6.7086
 21
-28.7782
  0
LINE
  8
0
 10
-6.7086
 20
-28.7782
 11
-6.85965
 21
-28.6364
  0
LINE
  8
0
 10
-6.85965
 20
-28.6364
 11
-6.99173
 21
-28.4767
  0
LINE
  8
0
 10
-6.99173
 20
-28.4767
 11
-7.10275
 21
-28.3017
  0
LINE
  8
0
 10
-7.10275
 20
-28.3017
 11
-7.19098
 21
-28.1143
  0
LINE
  8
0
 10
-7.19098
 20
-28.1143
 11
-7.255
 21
-27.9172
  0
LINE
  8
0
 10
-7.255
 20
-27.9172
 11
-7.29384
 21
-27.7137
  0
LINE
  8
0
 10
-7.29384
 20
-27.7137
 11
-7.30685
 21
-27.5069
  0
LINE
  8
0
 10
-7.30685
 20
-27.5069
 11
-7.29384
 21
-27.3
  0
LINE
  8
0
 10
-7.29384
 20
-27.3
 11
-7.255
 21
-27.0965
  0
LINE
  8
0
 10
-7.255
 20
-27.0965
 11
-7.19098
 21
-26.8994
  0
LINE
  8
0
 10
-7.19098
 20
-26.8994
 11
-7.10275
 21
-26.712
  0
LINE
  8
0
 10
-7.10275
 20
-26.712
 11
-6.99173
 21
-26.537
  0
LINE
  8
0
 10
-6.99173
 20
-26.537
 11
-6.85965
 21
-26.3773
  0
LINE
  8
0
 10
-6.85965
 20
-26.3773
 11
-6.7086
 21
-26.2355
  0
LINE
  8
0
 10
-6.7086
 20
-26.2355
 11
-6.54095
 21
-26.1137
  0
LINE
  8
0
 10
-6.54095
 20
-26.1137
 11
-6.35938
 21
-26.0139
  0
LINE
  8
0
 10
-6.35938
 20
-26.0139
 11
-6.16672
 21
-25.9376
  0
LINE
  8
0
 10
-6.16672
 20
-25.9376
 11
-5.96602
 21
-25.8861
  0
LINE
  8
0
 10
-5.96602
 20
-25.8861
 11
-5.76045
 21
-25.8601
  0
LINE
  8
0
 10
-5.76045
 20
-25.8601
 11
-5.55324
 21
-25.8601
  0
LINE
  8
0
 10
-5.55324
 20
-25.8601
 11
-5.34767
 21
-25.8861
  0
LINE
  8
0
 10
-5.34767
 20
-25.8861
 11
-5.14697
 21
-25.9376
  0
LINE
  8
0
 10
-5.14697
 20
-25.9376
 11
-4.95432
 21
-26.0139
  0
LINE
  8
0
 10
-4.95432
 20
-26.0139
 11
-4.77274
 21
-26.1137
  0
LINE
  8
0
 10
-4.77274
 20
-26.1137
 11
-4.6051
 21
-26.2355
  0
LINE
  8
0
 10
-4.6051
 20
-26.2355
 11
-4.45406
 21
-26.3773
  0
LINE
  8
0
 10
-4.45406
 20
-26.3773
 11
-4.32198
 21
-26.537
  0
LINE
  8
0
 10
-4.32198
 20
-26.537
 11
-4.21094
 21
-26.712
  0
LINE
  8
0
 10
-4.21094
 20
-26.712
 11
-4.12271
 21
-26.8994
  0
LINE
  8
0
 10
-4.12271
 20
-26.8994
 11
-4.05869
 21
-27.0965
  0
LINE
  8
0
 10
-4.05869
 20
-27.0965
 11
-4.01985
 21
-27.3
  0
LINE
  8
0
 10
-4.01985
 20
-27.3
 11
-4.00685
 21
-27.5069
  0
LINE
  8
0
 10
-4.00685
 20
-27.5069
 11
-4.01985
 21
-27.7137
  0
LINE
  8
0
 10
-4.01985
 20
-27.7137
 11
-4.05869
 21
-27.9172
  0
LINE
  8
0
 10
-4.05869
 20
-27.9172
 11
-4.12271
 21
-28.1143
  0
LINE
  8
0
 10
-4.12271
 20
-28.1143
 11
-4.21094
 21
-28.3017
  0
LINE
  8
0
 10
-4.21094
 20
-28.3017
 11
-4.32198
 21
-28.4767
  0
LINE
  8
0
 10
-4.32198
 20
-28.4767
 11
-4.45406
 21
-28.6364
  0
LINE
  8
0
 10
-4.45406
 20
-28.6364
 11
-4.6051
 21
-28.7782
  0
LINE
  8
0
 10
-4.6051
 20
-28.7782
 11
-4.77274
 21
-28.9
  0
LINE
  8
0
 10
-4.77274
 20
-28.9
 11
-4.95432
 21
-28.9998
  0
LINE
  8
0
 10
-4.95432
 20
-28.9998
 11
-5.14697
 21
-29.0761
  0
LINE
  8
0
 10
-5.14697
 20
-29.0761
 11
-5.34767
 21
-29.1276
  0
LINE
  8
0
 10
-5.34767
 20
-29.1276
 11
-5.55324
 21
-29.1536
  0
LINE
  8
0
 10
-5.55324
 20
-29.1536
 11
-5.76045
 21
-29.1536
  0
LINE
  8
0
 10
5.55324
 20
-29.1536
 11
5.34767
 21
-29.1276
  0
LINE
  8
0
 10
5.34767
 20
-29.1276
 11
5.14697
 21
-29.0761
  0
LINE
  8
0
 10
5.14697
 20
-29.0761
 11
4.95432
 21
-28.9998
  0
LINE
  8
0
 10
4.95432
 20
-28.9998
 11
4.77274
 21
-28.9
  0
LINE
  8
0
 10
4.77274
 20
-28.9
 11
4.6051
 21
-28.7782
  0
LINE
  8
0
 10
4.6051
 20
-28.7782
 11
4.45406
 21
-28.6364
  0
LINE
  8
0
 10
4.45406
 20
-28.6364
 11
4.32198
 21
-28.4767
  0
LINE
  8
0
 10
4.32198
 20
-28.4767
 11
4.21094
 21
-28.3017
  0
LINE
  8
0
 10
4.21094
 20
-28.3017
 11
4.12271
 21
-28.1143
  0
LINE
  8
0
 10
4.12271
 20
-28.1143
 11
4.05869
 21
-27.9172
  0
LINE
  8
0
 10
4.05869
 20
-27.9172
 11
4.01985
 21
-27.7137
  0
LINE
  8
0
 10
4.01985
 20
-27.7137
 11
4.00685
 21
-27.5069
  0
LINE
  8
0
 10
4.00685
 20
-27.5069
 11
4.01985
 21
-27.3
  0
LINE
  8
0
 10
4.01985
 20
-27.3
 11
4.05869
 21
-27.0965
  0
LINE
  8
0
 10
4.05869
 20
-27.0965
 11
4.12271
 21
-26.8994
  0
LINE
  8
0
 10
4.12271
 20
-26.8994
 11
4.21094
 21
-26.712
  0
LINE
  8
0
 10
4.21094
 20
-26.712
 11
4.32198
 21
-26.537
  0
LINE
  8
0
 10
4.32198
 20
-26.537
 11
4.45406
 21
-26.3773
  0
LINE
  8
0
 10
4.45406
 20
-26.3773
 11
4.6051
 21
-26.2355
  0
LINE
  8
0
 10
4.6051
 20
-26.2355
 11
4.77274
 21
-26.1137
  0
LINE
  8
0
 10
4.77274
 20
-26.1137
 11
4.95432
 21
-26.0139
  0
LINE
  8
0
 10
4.95432
 20
-26.0139
 11
5.14697
 21
-25.9376
  0
LINE
  8
0
 10
5.14697
 20
-25.9376
 11
5.34767
 21
-25.8861
  0
LINE
  8
0
 10
5.34767
 20
-25.8861
 11
5.55324
 21
-25.8601
  0
LINE
  8
0
 10
5.55324
 20
-25.8601
 11
5.76045
 21
-25.8601
  0
LINE
  8
0
 10
5.76045
 20
-25.8601
 11
5.96602
 21
-25.8861
  0
LINE
  8
0
 10
5.96602
 20
-25.8861
 11
6.16672
 21
-25.9376
  0
LINE
  8
0
 10
6.16672
 20
-25.9376
 11
6.35938
 21
-26.0139
  0
LINE
  8
0
 10
6.35938
 20
-26.0139
 11
6.54095
 21
-26.1137
  0
LINE
  8
0
 10
6.54095
 20
-26.1137
 11
6.7086
 21
-26.2355
  0
LINE
  8
0
 10
6.7086
 20
-26.2355
 11
6.85965
 21
-26.3773
  0
LINE
  8
0
 10
6.85965
 20
-26.3773
 11
6.99173
 21
-26.537
  0
LINE
  8
0
 10
6.99173
 20
-26.537
 11
7.10275
 21
-26.712
  0
LINE
  8
0
 10
7.10275
 20
-26.712
 11
7.19098
 21
-26.8994
  0
LINE
  8
0
 10
7.19098
 20
-26.8994
 11
7.255
 21
-27.0965
  0
LINE
  8
0
 10
7.255
 20
-27.0965
 11
7.29384
 21
-27.3
  0
LINE
  8
0
 10
7.29384
 20
-27.3
 11
7.30685
 21
-27.5069
  0
LINE
  8
0
 10
7.30685
 20
-27.5069
 11
7.29384
 21
-27.7137
  0
LINE
  8
0
 10
7.29384
 20
-27.7137
 11
7.255
 21
-27.9172
  0
LINE
  8
0
 10
7.255
 20
-27.9172
 11
7.19098
 21
-28.1143
  0
LINE
  8
0
 10
7.19098
 20
-28.1143
 11
7.10275
 21
-28.3017
  0
LINE
  8
0
 10
7.10275
 20
-28.3017
 11
6.99173
 21
-28.4767
  0
LINE
  8
0
 10
6.99173
 20
-28.4767
 11
6.85965
 21
-28.6364
  0
LINE
  8
0
 10
6.85965
 20
-28.6364
 11
6.7086
 21
-28.7782
  0
LINE
  8
0
 10
6.7086
 20
-28.7782
 11
6.54095
 21
-28.9
  0
LINE
  8
0
 10
6.54095
 20
-28.9
 11
6.35938
 21
-28.9998
  0
LINE
  8
0
 10
6.35938
 20
-28.9998
 11
6.16672
 21
-29.0761
  0
LINE
  8
0
 10
6.16672
 20
-29.0761
 11
5.96602
 21
-29.1276
  0
LINE
  8
0
 10
5.96602
 20
-29.1276
 11
5.76045
 21
-29.1536
  0
LINE
  8
0
 10
5.76045
 20
-29.1536
 11
5.55324
 21
-29.1536
  0
LINE
  8
0
 10
-48.8276
 20
-33.5593
 11
-49.1079
 21
-33.5238
  0
LINE
  8
0
 10
-49.1079
 20
-33.5238
 11
-49.3816
 21
-33.4536
  0
LINE
  8
0
 10
-49.3816
 20
-33.4536
 11
-49.6443
 21
-33.3496
  0
LINE
  8
0
 10
-49.6443
 20
-33.3496
 11
-49.8919
 21
-33.2134
  0
LINE
  8
0
 10
-49.8919
 20
-33.2134
 11
-50.1205
 21
-33.0474
  0
LINE
  8
0
 10
-50.1205
 20
-33.0474
 11
-50.3265
 21
-32.8539
  0
LINE
  8
0
 10
-50.3265
 20
-32.8539
 11
-50.5066
 21
-32.6362
  0
LINE
  8
0
 10
-50.5066
 20
-32.6362
 11
-50.658
 21
-32.3976
  0
LINE
  8
0
 10
-50.658
 20
-32.3976
 11
-50.7783
 21
-32.142
  0
LINE
  8
0
 10
-50.7783
 20
-32.142
 11
-50.8656
 21
-31.8733
  0
LINE
  8
0
 10
-50.8656
 20
-31.8733
 11
-50.9185
 21
-31.5957
  0
LINE
  8
0
 10
-50.9185
 20
-31.5957
 11
-50.9363
 21
-31.3137
  0
LINE
  8
0
 10
-50.9363
 20
-31.3137
 11
-50.9185
 21
-31.0317
  0
LINE
  8
0
 10
-50.9185
 20
-31.0317
 11
-50.8656
 21
-30.7542
  0
LINE
  8
0
 10
-50.8656
 20
-30.7542
 11
-50.7783
 21
-30.4854
  0
LINE
  8
0
 10
-50.7783
 20
-30.4854
 11
-50.658
 21
-30.2298
  0
LINE
  8
0
 10
-50.658
 20
-30.2298
 11
-50.5066
 21
-29.9912
  0
LINE
  8
0
 10
-50.5066
 20
-29.9912
 11
-50.3265
 21
-29.7735
  0
LINE
  8
0
 10
-50.3265
 20
-29.7735
 11
-50.1205
 21
-29.58
  0
LINE
  8
0
 10
-50.1205
 20
-29.58
 11
-49.8919
 21
-29.414
  0
LINE
  8
0
 10
-49.8919
 20
-29.414
 11
-49.6443
 21
-29.2778
  0
LINE
  8
0
 10
-49.6443
 20
-29.2778
 11
-49.3816
 21
-29.1738
  0
LINE
  8
0
 10
-49.3816
 20
-29.1738
 11
-49.1079
 21
-29.1036
  0
LINE
  8
0
 10
-49.1079
 20
-29.1036
 11
-48.8276
 21
-29.0681
  0
LINE
  8
0
 10
-48.8276
 20
-29.0681
 11
-48.545
 21
-29.0681
  0
LINE
  8
0
 10
-48.545
 20
-29.0681
 11
-48.2647
 21
-29.1036
  0
LINE
  8
0
 10
-48.2647
 20
-29.1036
 11
-47.991
 21
-29.1738
  0
LINE
  8
0
 10
-47.991
 20
-29.1738
 11
-47.7283
 21
-29.2778
  0
LINE
  8
0
 10
-47.7283
 20
-29.2778
 11
-47.4807
 21
-29.414
  0
LINE
  8
0
 10
-47.4807
 20
-29.414
 11
-47.2521
 21
-29.58
  0
LINE
  8
0
 10
-47.2521
 20
-29.58
 11
-47.0461
 21
-29.7735
  0
LINE
  8
0
 10
-47.0461
 20
-29.7735
 11
-46.866
 21
-29.9912
  0
LINE
  8
0
 10
-46.866
 20
-29.9912
 11
-46.7146
 21
-30.2298
  0
LINE
  8
0
 10
-46.7146
 20
-30.2298
 11
-46.5943
 21
-30.4854
  0
LINE
  8
0
 10
-46.5943
 20
-30.4854
 11
-46.507
 21
-30.7542
  0
LINE
  8
0
 10
-46.507
 20
-30.7542
 11
-46.454
 21
-31.0317
  0
LINE
  8
0
 10
-46.454
 20
-31.0317
 11
-46.4363
 21
-31.3137
  0
LINE
  8
0
 10
-46.4363
 20
-31.3137
 11
-46.454
 21
-31.5957
  0
LINE
  8
0
 10
-46.454
 20
-31.5957
 11
-46.507
 21
-31.8733
  0
LINE
  8
0
 10
-46.507
 20
-31.8733
 11
-46.5943
 21
-32.142
  0
LINE
  8
0
 10
-46.5943
 20
-32.142
 11
-46.7146
 21
-32.3976
  0
LINE
  8
0
 10
-46.7146
 20
-32.3976
 11
-46.866
 21
-32.6362
  0
LINE
  8
0
 10
-46.866
 20
-32.6362
 11
-47.0461
 21
-32.8539
  0
LINE
  8
0
 10
-47.0461
 20
-32.8539
 11
-47.2521
 21
-33.0474
  0
LINE
  8
0
 10
-47.2521
 20
-33.0474
 11
-47.4807
 21
-33.2134
  0
LINE
  8
0
 10
-47.4807
 20
-33.2134
 11
-47.7283
 21
-33.3496
  0
LINE
  8
0
 10
-47.7283
 20
-33.3496
 11
-47.991
 21
-33.4536
  0
LINE
  8
0
 10
-47.991
 20
-33.4536
 11
-48.2647
 21
-33.5238
  0
LINE
  8
0
 10
-48.2647
 20
-33.5238
 11
-48.545
 21
-33.5593
  0
LINE
  8
0
 10
-48.545
 20
-33.5593
 11
-48.8276
 21
-33.5593
  0
LINE
  8
0
 10
48.545
 20
-33.5593
 11
48.2647
 21
-33.5238
  0
LINE
  8
0
 10
48.2647
 20
-33.5238
 11
47.991
 21
-33.4536
  0
LINE
  8
0
 10
47.991
 20
-33.4536
 11
47.7283
 21
-33.3496
  0
LINE
  8
0
 10
47.7283
 20
-33.3496
 11
47.4807
 21
-33.2134
  0
LINE
  8
0
 10
47.4807
 20
-33.2134
 11
47.2521
 21
-33.0474
  0
LINE
  8
0
 10
47.2521
 20
-33.0474
 11
47.0461
 21
-32.8539
  0
LINE
  8
0
 10
47.0461
 20
-32.8539
 11
46.866
 21
-32.6362
  0
LINE
  8
0
 10
46.866
 20
-32.6362
 11
46.7146
 21
-32.3976
  0
LINE
  8
0
 10
46.7146
 20
-32.3976
 11
46.5943
 21
-32.142
  0
LINE
  8
0
 10
46.5943
 20
-32.142
 11
46.507
 21
-31.8733
  0
LINE
  8
0
 10
46.507
 20
-31.8733
 11
46.454
 21
-31.5957
  0
LINE
  8
0
 10
46.454
 20
-31.5957
 11
46.4363
 21
-31.3137
  0
LINE
  8
0
 10
46.4363
 20
-31.3137
 11
46.454
 21
-31.0317
  0
LINE
  8
0
 10
46.454
 20
-31.0317
 11
46.507
 21
-30.7542
  0
LINE
  8
0
 10
46.507
 20
-30.7542
 11
46.5943
 21
-30.4854
  0
LINE
  8
0
 10
46.5943
 20
-30.4854
 11
46.7146
 21
-30.2298
  0
LINE
  8
0
 10
46.7146
 20
-30.2298
 11
46.866
 21
-29.9912
  0
LINE
  8
0
 10
46.866
 20
-29.9912
 11
47.0461
 21
-29.7735
  0
LINE
  8
0
 10
47.0461
 20
-29.7735
 11
47.2521
 21
-29.58
  0
LINE
  8
0
 10
47.2521
 20
-29.58
 11
47.4807
 21
-29.414
  0
LINE
  8
0
 10
47.4807
 20
-29.414
 11
47.7283
 21
-29.2778
  0
LINE
  8
0
 10
47.7283
 20
-29.2778
 11
47.991
 21
-29.1738
  0
LINE
  8
0
 10
47.991
 20
-29.1738
 11
48.2647
 21
-29.1036
  0
LINE
  8
0
 10
48.2647
 20
-29.1036
 11
48.545
 21
-29.0681
  0
LINE
  8
0
 10
48.545
 20
-29.0681
 11
48.8276
 21
-29.0681
  0
LINE
  8
0
 10
48.8276
 20
-29.0681
 11
49.1079
 21
-29.1036
  0
LINE
  8
0
 10
49.1079
 20
-29.1036
 11
49.3816
 21
-29.1738
  0
LINE
  8
0
 10
49.3816
 20
-29.1738
 11
49.6443
 21
-29.2778
  0
LINE
  8
0
 10
49.6443
 20
-29.2778
 11
49.8919
 21
-29.414
  0
LINE
  8
0
 10
49.8919
 20
-29.414
 11
50.1205
 21
-29.58
  0
LINE
  8
0
 10
50.1205
 20
-29.58
 11
50.3265
 21
-29.7735
  0
LINE
  8
0
 10
50.3265
 20
-29.7735
 11
50.5066
 21
-29.9912
  0
LINE
  8
0
 10
50.5066
 20
-29.9912
 11
50.658
 21
-30.2298
  0
LINE
  8
0
 10
50.658
 20
-30.2298
 11
50.7783
 21
-30.4854
  0
LINE
  8
0
 10
50.7783
 20
-30.4854
 11
50.8656
 21
-30.7542
  0
LINE
  8
0
 10
50.8656
 20
-30.7542
 11
50.9185
 21
-31.0317
  0
LINE
  8
0
 10
50.9185
 20
-31.0317
 11
50.9363
 21
-31.3137
  0
LINE
  8
0
 10
50.9363
 20
-31.3137
 11
50.9185
 21
-31.5957
  0
LINE
  8
0
 10
50.9185
 20
-31.5957
 11
50.8656
 21
-31.8733
  0
LINE
  8
0
 10
50.8656
 20
-31.8733
 11
50.7783
 21
-32.142
  0
LINE
  8
0
 10
50.7783
 20
-32.142
 11
50.658
 21
-32.3976
  0
LINE
  8
0
 10
50.658
 20
-32.3976
 11
50.5066
 21
-32.6362
  0
LINE
  8
0
 10
50.5066
 20
-32.6362
 11
50.3265
 21
-32.8539
  0
LINE
  8
0
 10
50.3265
 20
-32.8539
 11
50.1205
 21
-33.0474
  0
LINE
  8
0
 10
50.1205
 20
-33.0474
 11
49.8919
 21
-33.2134
  0
LINE
  8
0
 10
49.8919
 20
-33.2134
 11
49.6443
 21
-33.3496
  0
LINE
  8
0
 10
49.6443
 20
-33.3496
 11
49.3816
 21
-33.4536
  0
LINE
  8
0
 10
49.3816
 20
-33.4536
 11
49.1079
 21
-33.5238
  0
LINE
  8
0
 10
49.1079
 20
-33.5238
 11
48.8276
 21
-33.5593
  0
LINE
  8
0
 10
48.8276
 20
-33.5593
 11
48.545
 21
-33.5593
  0
LINE
  8
0
 10
-71.455
 20
-33.5593
 11
-71.7353
 21
-33.5238
  0
LINE
  8
0
 10
-71.7353
 20
-33.5238
 11
-72.009
 21
-33.4536
  0
LINE
  8
0
 10
-72.009
 20
-33.4536
 11
-72.2717
 21
-33.3496
  0
LINE
  8
0
 10
-72.2717
 20
-33.3496
 11
-72.5193
 21
-33.2134
  0
LINE
  8
0
 10
-72.5193
 20
-33.2134
 11
-72.7479
 21
-33.0474
  0
LINE
  8
0
 10
-72.7479
 20
-33.0474
 11
-72.9539
 21
-32.8539
  0
LINE
  8
0
 10
-72.9539
 20
-32.8539
 11
-73.134
 21
-32.6362
  0
LINE
  8
0
 10
-73.134
 20
-32.6362
 11
-73.2854
 21
-32.3976
  0
LINE
  8
0
 10
-73.2854
 20
-32.3976
 11
-73.4057
 21
-32.142
  0
LINE
  8
0
 10
-73.4057
 20
-32.142
 11
-73.493
 21
-31.8733
  0
LINE
  8
0
 10
-73.493
 20
-31.8733
 11
-73.546
 21
-31.5957
  0
LINE
  8
0
 10
-73.546
 20
-31.5957
 11
-73.5637
 21
-31.3137
  0
LINE
  8
0
 10
-73.5637
 20
-31.3137
 11
-73.546
 21
-31.0317
  0
LINE
  8
0
 10
-73.546
 20
-31.0317
 11
-73.493
 21
-30.7542
  0
LINE
  8
0
 10
-73.493
 20
-30.7542
 11
-73.4057
 21
-30.4854
  0
LINE
  8
0
 10
-73.4057
 20
-30.4854
 11
-73.2854
 21
-30.2298
  0
LINE
  8
0
 10
-73.2854
 20
-30.2298
 11
-73.134
 21
-29.9912
  0
LINE
  8
0
 10
-73.134
 20
-29.9912
 11
-72.9539
 21
-29.7735
  0
LINE
  8
0
 10
-72.9539
 20
-29.7735
 11
-72.7479
 21
-29.58
  0
LINE
  8
0
 10
-72.7479
 20
-29.58
 11
-72.5193
 21
-29.414
  0
LINE
  8
0
 10
-72.5193
 20
-29.414
 11
-72.2717
 21
-29.2778
  0
LINE
  8
0
 10
-72.2717
 20
-29.2778
 11
-72.009
 21
-29.1738
  0
LINE
  8
0
 10
-72.009
 20
-29.1738
 11
-71.7353
 21
-29.1036
  0
LINE
  8
0
 10
-71.7353
 20
-29.1036
 11
-71.455
 21
-29.0681
  0
LINE
  8
0
 10
-71.455
 20
-29.0681
 11
-71.1724
 21
-29.0681
  0
LINE
  8
0
 10
-71.1724
 20
-29.0681
 11
-70.8921
 21
-29.1036
  0
LINE
  8
0
 10
-70.8921
 20
-29.1036
 11
-70.6184
 21
-29.1738
  0
LINE
  8
0
 10
-70.6184
 20
-29.1738
 11
-70.3557
 21
-29.2778
  0
LINE
  8
0
 10
-70.3557
 20
-29.2778
 11
-70.1081
 21
-29.414
  0
LINE
  8
0
 10
-70.1081
 20
-29.414
 11
-69.8795
 21
-29.58
  0
LINE
  8
0
 10
-69.8795
 20
-29.58
 11
-69.6735
 21
-29.7735
  0
LINE
  8
0
 10
-69.6735
 20
-29.7735
 11
-69.4934
 21
-29.9912
  0
LINE
  8
0
 10
-69.4934
 20
-29.9912
 11
-69.342
 21
-30.2298
  0
LINE
  8
0
 10
-69.342
 20
-30.2298
 11
-69.2217
 21
-30.4854
  0
LINE
  8
0
 10
-69.2217
 20
-30.4854
 11
-69.1344
 21
-30.7542
  0
LINE
  8
0
 10
-69.1344
 20
-30.7542
 11
-69.0814
 21
-31.0317
  0
LINE
  8
0
 10
-69.0814
 20
-31.0317
 11
-69.0637
 21
-31.3137
  0
LINE
  8
0
 10
-69.0637
 20
-31.3137
 11
-69.0814
 21
-31.5957
  0
LINE
  8
0
 10
-69.0814
 20
-31.5957
 11
-69.1344
 21
-31.8733
  0
LINE
  8
0
 10
-69.1344
 20
-31.8733
 11
-69.2217
 21
-32.142
  0
LINE
  8
0
 10
-69.2217
 20
-32.142
 11
-69.342
 21
-32.3976
  0
LINE
  8
0
 10
-69.342
 20
-32.3976
 11
-69.4934
 21
-32.6362
  0
LINE
  8
0
 10
-69.4934
 20
-32.6362
 11
-69.6735
 21
-32.8539
  0
LINE
  8
0
 10
-69.6735
 20
-32.8539
 11
-69.8795
 21
-33.0474
  0
LINE
  8
0
 10
-69.8795
 20
-33.0474
 11
-70.1081
 21
-33.2134
  0
LINE
  8
0
 10
-70.1081
 20
-33.2134
 11
-70.3557
 21
-33.3496
  0
LINE
  8
0
 10
-70.3557
 20
-33.3496
 11
-70.6184
 21
-33.4536
  0
LINE
  8
0
 10
-70.6184
 20
-33.4536
 11
-70.8921
 21
-33.5238
  0
LINE
  8
0
 10
-70.8921
 20
-33.5238
 11
-71.1724
 21
-33.5593
  0
LINE
  8
0
 10
-71.1724
 20
-33.5593
 11
-71.455
 21
-33.5593
  0
LINE
  8
0
 10
71.1724
 20
-33.5593
 11
70.8921
 21
-33.5238
  0
LINE
  8
0
 10
70.8921
 20
-33.5238
 11
70.6184
 21
-33.4536
  0
LINE
  8
0
 10
70.6184
 20
-33.4536
 11
70.3557
 21
-33.3496
  0
LINE
  8
0
 10
70.3557
 20
-33.3496
 11
70.1081
 21
-33.2134
  0
LINE
  8
0
 10
70.1081
 20
-33.2134
 11
69.8795
 21
-33.0474
  0
LINE
  8
0
 10
69.8795
 20
-33.0474
 11
69.6735
 21
-32.8539
  0
LINE
  8
0
 10
69.6735
 20
-32.8539
 11
69.4934
 21
-32.6362
  0
LINE
  8
0
 10
69.4934
 20
-32.6362
 11
69.342
 21
-32.3976
  0
LINE
  8
0
 10
69.342
 20
-32.3976
 11
69.2217
 21
-32.142
  0
LINE
  8
0
 10
69.2217
 20
-32.142
 11
69.1344
 21
-31.8733
  0
LINE
  8
0
 10
69.1344
 20
-31.8733
 11
69.0814
 21
-31.5957
  0
LINE
  8
0
 10
69.0814
 20
-31.5957
 11
69.0637
 21
-31.3137
  0
LINE
  8
0
 10
69.0637
 20
-31.3137
 11
69.0814
 21
-31.0317
  0
LINE
  8
0
 10
69.0814
 20
-31.0317
 11
69.1344
 21
-30.7542
  0
LINE
  8
0
 10
69.1344
 20
-30.7542
 11
69.2217
 21
-30.4854
  0
LINE
  8
0
 10
69.2217
 20
-30.4854
 11
69.342
 21
-30.2298
  0
LINE
  8
0
 10
69.342
 20
-30.2298
 11
69.4934
 21
-29.9912
  0
LINE
  8
0
 10
69.4934
 20
-29.9912
 11
69.6735
 21
-29.7735
  0
LINE
  8
0
 10
69.6735
 20
-29.7735
 11
69.8795
 21
-29.58
  0
LINE
  8
0
 10
69.8795
 20
-29.58
 11
70.1081
 21
-29.414
  0
LINE
  8
0
 10
70.1081
 20
-29.414
 11
70.3557
 21
-29.2778
  0
LINE
  8
0
 10
70.3557
 20
-29.2778
 11
70.6184
 21
-29.1738
  0
LINE
  8
0
 10
70.6184
 20
-29.1738
 11
70.8921
 21
-29.1036
  0
LINE
  8
0
 10
70.8921
 20
-29.1036
 11
71.1724
 21
-29.0681
  0
LINE
  8
0
 10
71.1724
 20
-29.0681
 11
71.455
 21
-29.0681
  0
LINE
  8
0
 10
71.455
 20
-29.0681
 11
71.7353
 21
-29.1036
  0
LINE
  8
0
 10
71.7353
 20
-29.1036
 11
72.009
 21
-29.1738
  0
LINE
  8
0
 10
72.009
 20
-29.1738
 11
72.2717
 21
-29.2778
  0
LINE
  8
0
 10
72.2717
 20
-29.2778
 11
72.5193
 21
-29.414
  0
LINE
  8
0
 10
72.5193
 20
-29.414
 11
72.7479
 21
-29.58
  0
LINE
  8
0
 10
72.7479
 20
-29.58
 11
72.9539
 21
-29.7735
  0
LINE
  8
0
 10
72.9539
 20
-29.7735
 11
73.134
 21
-29.9912
  0
LINE
  8
0
 10
73.134
 20
-29.9912
 11
73.2854
 21
-30.2298
  0
LINE
  8
0
 10
73.2854
 20
-30.2298
 11
73.4057
 21
-30.4854
  0
LINE
  8
0
 10
73.4057
 20
-30.4854
 11
73.493
 21
-30.7542
  0
LINE
  8
0
 10
73.493
 20
-30.7542
 11
73.546
 21
-31.0317
  0
LINE
  8
0
 10
73.546
 20
-31.0317
 11
73.5637
 21
-31.3137
  0
LINE
  8
0
 10
73.5637
 20
-31.3137
 11
73.546
 21
-31.5957
  0
LINE
  8
0
 10
73.546
 20
-31.5957
 11
73.493
 21
-31.8733
  0
LINE
  8
0
 10
73.493
 20
-31.8733
 11
73.4057
 21
-32.142
  0
LINE
  8
0
 10
73.4057
 20
-32.142
 11
73.2854
 21
-32.3976
  0
LINE
  8
0
 10
73.2854
 20
-32.3976
 11
73.134
 21
-32.6362
  0
LINE
  8
0
 10
73.134
 20
-32.6362
 11
72.9539
 21
-32.8539
  0
LINE
  8
0
 10
72.9539
 20
-32.8539
 11
72.7479
 21
-33.0474
  0
LINE
  8
0
 10
72.7479
 20
-33.0474
 11
72.5193
 21
-33.2134
  0
LINE
  8
0
 10
72.5193
 20
-33.2134
 11
72.2717
 21
-33.3496
  0
LINE
  8
0
 10
72.2717
 20
-33.3496
 11
72.009
 21
-33.4536
  0
LINE
  8
0
 10
72.009
 20
-33.4536
 11
71.7353
 21
-33.5238
  0
LINE
  8
0
 10
71.7353
 20
-33.5238
 11
71.455
 21
-33.5593
  0
LINE
  8
0
 10
71.455
 20
-33.5593
 11
71.1724
 21
-33.5593
  0
ENDSEC
  0
SECTION
  2
OBJECTS
  0
DICTIONARY
  0
ENDSEC
  0
EOF
